<?xml version="1.0" encoding="UTF-8"?>
<svg version="1.1" xmlns="http://www.w3.org/2000/svg" width="512" height="512">
<path d="M0 0 C0.94488785 -0.00705963 1.8897757 -0.01411926 2.86329651 -0.02139282 C41.91562467 -0.247035 41.91562467 -0.247035 58.76953125 3.203125 C59.7661377 3.39648438 60.76274414 3.58984375 61.78955078 3.7890625 C100.40821693 11.41976708 136.53468579 27.14110236 167.76953125 51.203125 C168.58164062 51.82316406 169.39375 52.44320312 170.23046875 53.08203125 C187.29561497 66.40576529 203.65598021 82.02237644 216.49560547 99.48486328 C217.79203791 101.23348182 219.12241843 102.95141303 220.4609375 104.66796875 C228.32520366 114.8826848 234.71064045 125.84037758 240.76953125 137.203125 C241.43299561 138.44376709 241.43299561 138.44376709 242.10986328 139.70947266 C253.62475138 161.60914048 261.30553389 185.90530086 265.76953125 210.203125 C265.9303418 211.00911133 266.09115234 211.81509766 266.25683594 212.64550781 C271.65497468 240.45983507 271.45909671 273.46015473 265.76953125 301.203125 C265.46354004 302.74009033 265.46354004 302.74009033 265.15136719 304.30810547 C258.95915394 334.74188716 246.29279969 385.57231996 220.01953125 405.640625 C214.3726839 408.43541354 207.84793458 408.17566953 201.76953125 407.203125 C196.62893031 405.13815942 191.71472909 401.58998246 189.3984375 396.38671875 C186.99940638 388.0571635 187.47911147 382.20250919 191.5859375 374.625 C194.61992998 369.38952593 197.82167558 364.25743178 201.00878906 359.11425781 C217.16764423 332.39792544 226.69069871 298.70386747 227.0078125 267.48828125 C227.01760635 266.68344803 227.02740021 265.87861481 227.03749084 265.0493927 C227.52554153 214.49226175 215.2670129 166.77169857 183.76953125 126.203125 C182.98964844 125.19378906 182.20976562 124.18445313 181.40625 123.14453125 C144.70044139 77.18077447 92.15918157 48.85168266 33.76953125 42.203125 C-19.66934576 37.13495299 -74.69876532 52.18146734 -117.23046875 85.203125 C-118.23980469 85.98300781 -119.24914062 86.76289062 -120.2890625 87.56640625 C-165.36466913 123.56295452 -193.54492356 174.82652336 -200.83569336 232.05273438 C-201.65714362 239.84733 -201.62386623 247.68628742 -201.60546875 255.515625 C-201.60492493 256.3906366 -201.6043811 257.26564819 -201.6038208 258.16717529 C-201.4723899 304.36881588 -186.70220822 349.53168979 -158.23046875 386.203125 C-157.45058594 387.21246094 -156.67070312 388.22179687 -155.8671875 389.26171875 C-120.3824565 433.69641742 -68.97265345 462.88263978 -12.34765625 469.671875 C14.41337509 472.5583668 40.60820077 470.50945222 66.76953125 464.203125 C67.9292041 463.92710449 67.9292041 463.92710449 69.11230469 463.64550781 C87.86463642 459.03623409 105.76584282 450.85049628 122.3828125 441.13671875 C128.69637675 437.53208864 134.62877174 437.47637314 141.76953125 438.203125 C147.39608552 440.11740578 151.01711549 443.89981957 153.859375 449.03515625 C156.48449028 455.28811325 156.07145692 460.63389729 153.94921875 466.96484375 C150.15901249 474.15619537 144.90795626 477.2656034 137.89453125 480.953125 C136.43901855 481.7280127 136.43901855 481.7280127 134.95410156 482.51855469 C96.65931508 502.58359399 55.80740884 512.68403826 12.64453125 512.515625 C11.64996918 512.51346985 10.6554071 512.5113147 9.63070679 512.50909424 C-4.84985541 512.45873517 -18.99861125 512.10795856 -33.23046875 509.203125 C-34.75148193 508.90510986 -34.75148193 508.90510986 -36.30322266 508.60107422 C-77.39385539 500.38294767 -114.32830564 482.94180095 -147.23046875 457.203125 C-147.76961914 456.78401855 -148.30876953 456.36491211 -148.86425781 455.93310547 C-165.1043318 443.17008625 -180.17509218 427.97886011 -192.23046875 411.203125 C-193.09422145 410.03324044 -193.95882344 408.8639825 -194.82421875 407.6953125 C-209.96754617 387.0693007 -222.04968525 364.46015373 -230.23046875 340.203125 C-230.64353271 338.98061035 -230.64353271 338.98061035 -231.06494141 337.73339844 C-234.30302381 327.96254823 -236.83532348 318.08093763 -238.98046875 308.015625 C-239.17922607 307.09096436 -239.3779834 306.16630371 -239.58276367 305.21362305 C-242.87545902 289.00701323 -243.60577153 273.0727548 -243.54296875 256.578125 C-243.5408136 255.55988647 -243.53865845 254.54164795 -243.53643799 253.49255371 C-243.48673484 238.8683366 -243.17254863 224.57507862 -240.23046875 210.203125 C-239.94042969 208.70821533 -239.94042969 208.70821533 -239.64453125 207.18310547 C-230.21384757 159.45482289 -208.24432101 115.15908049 -174.23046875 80.203125 C-173.53791992 79.48479492 -172.84537109 78.76646484 -172.13183594 78.02636719 C-162.39274534 67.95866957 -152.64325716 58.35375276 -141.23046875 50.203125 C-140.61139648 49.75565918 -139.99232422 49.30819336 -139.35449219 48.84716797 C-99.20200514 19.97811463 -49.94969891 0.24934766 0 0 Z " fill="#2EC8FE" transform="translate(243.23046875,-0.203125)"/>
<path d="M0 0 C4.90931828 3.03174788 7.92422534 6.56650301 10.234375 11.89453125 C10.58788134 14.66147757 10.7453846 17.00798937 10.68847656 19.75756836 C10.68906067 20.50961548 10.68964478 21.2616626 10.69024658 22.03649902 C10.68748095 24.49877629 10.6564635 26.95981174 10.625 29.421875 C10.61753214 31.13822265 10.61184178 32.85457886 10.60784912 34.57093811 C10.59263557 39.07068761 10.55339125 43.56991403 10.5090332 48.06945801 C10.46798769 52.66797817 10.44981836 57.26658351 10.4296875 61.86523438 C10.38689236 70.8752288 10.31869346 79.88483639 10.234375 88.89453125 C11.65138954 88.87454575 11.65138954 88.87454575 13.09703064 88.85415649 C22.02677042 88.73219802 30.95633986 88.64242676 39.88672543 88.58365822 C44.47732866 88.55242784 49.06725625 88.51010862 53.6574707 88.44189453 C58.09253583 88.37640321 62.52695369 88.34076291 66.96246529 88.32526779 C68.6493199 88.31423449 70.33614157 88.29268878 72.02271843 88.26015091 C87.96095704 87.96506928 87.96095704 87.96506928 94.63844299 93.30966187 C99.62185892 98.25853393 100.50980199 101.85244825 100.859375 108.76953125 C100.67972421 114.59269473 99.6129426 118.31571351 96.23046875 123.02734375 C91.04129141 127.88140787 86.38298697 129.49375293 79.37133789 129.34863281 C78.61929077 129.34921692 77.86724365 129.34980103 77.09240723 129.35040283 C74.63012996 129.3476372 72.16909451 129.31661975 69.70703125 129.28515625 C67.9906836 129.27768839 66.27432739 129.27199803 64.55796814 129.26800537 C60.05821864 129.25279182 55.55899222 129.2135475 51.05944824 129.16918945 C46.46092808 129.12814394 41.86232274 129.10997461 37.26367188 129.08984375 C28.25367745 129.04704861 19.24406986 128.97884971 10.234375 128.89453125 C10.24769867 129.83920761 10.26102234 130.78388397 10.27474976 131.75718689 C10.39670823 140.68692667 10.48647949 149.61649611 10.54524803 158.54688168 C10.57647841 163.13748491 10.61879763 167.7274125 10.68701172 172.31762695 C10.75250304 176.75269208 10.78814334 181.18710994 10.80363846 185.62262154 C10.81467176 187.30947615 10.83621747 188.99629782 10.86875534 190.68287468 C11.16383697 206.62111329 11.16383697 206.62111329 5.81924438 213.29859924 C0.87037232 218.28201517 -2.723542 219.16995824 -9.640625 219.51953125 C-15.46378848 219.33988046 -19.18680726 218.27309885 -23.8984375 214.890625 C-28.75250162 209.70144766 -30.36484668 205.04314322 -30.21972656 198.03149414 C-30.22031067 197.27944702 -30.22089478 196.5273999 -30.22149658 195.75256348 C-30.21873095 193.29028621 -30.1877135 190.82925076 -30.15625 188.3671875 C-30.14878214 186.65083985 -30.14309178 184.93448364 -30.13909912 183.21812439 C-30.12388557 178.71837489 -30.08464125 174.21914847 -30.0402832 169.71960449 C-29.99923769 165.12108433 -29.98106836 160.52247899 -29.9609375 155.92382812 C-29.91814236 146.9138337 -29.84994346 137.90422611 -29.765625 128.89453125 C-30.71030136 128.90785492 -31.65497772 128.92117859 -32.62828064 128.93490601 C-41.55802042 129.05686448 -50.48758986 129.14663574 -59.41797543 129.20540428 C-64.00857866 129.23663466 -68.59850625 129.27895388 -73.1887207 129.34716797 C-77.62378583 129.41265929 -82.05820369 129.44829959 -86.49371529 129.46379471 C-88.1805699 129.47482801 -89.86739157 129.49637372 -91.55396843 129.52891159 C-107.49220704 129.82399322 -107.49220704 129.82399322 -114.16969299 124.47940063 C-119.15310892 119.53052857 -120.04105199 115.93661425 -120.390625 109.01953125 C-120.21097421 103.19636777 -119.1441926 99.47334899 -115.76171875 94.76171875 C-110.57254141 89.90765463 -105.91423697 88.29530957 -98.90258789 88.44042969 C-98.15054077 88.43984558 -97.39849365 88.43926147 -96.62365723 88.43865967 C-94.16137996 88.4414253 -91.70034451 88.47244275 -89.23828125 88.50390625 C-87.5219336 88.51137411 -85.80557739 88.51706447 -84.08921814 88.52105713 C-79.58946864 88.53627068 -75.09024222 88.575515 -70.59069824 88.61987305 C-65.99217808 88.66091856 -61.39357274 88.67908789 -56.79492188 88.69921875 C-47.78492745 88.74201389 -38.77531986 88.81021279 -29.765625 88.89453125 C-29.77894867 87.94985489 -29.79227234 87.00517853 -29.80599976 86.03187561 C-29.92795823 77.10213583 -30.01772949 68.17256639 -30.07649803 59.24218082 C-30.10772841 54.65157759 -30.15004763 50.06165 -30.21826172 45.47143555 C-30.28375304 41.03637042 -30.31939334 36.60195256 -30.33488846 32.16644096 C-30.34592176 30.47958635 -30.36746747 28.79276468 -30.40000534 27.10618782 C-30.69508697 11.16794921 -30.69508697 11.16794921 -25.35049438 4.49046326 C-18.60042496 -2.30672265 -8.96190742 -3.58223136 0 0 Z " fill="#36C1FE" transform="translate(265.765625,147.10546875)"/>
</svg>
