<?xml version="1.0" encoding="UTF-8"?>
<svg version="1.1" xmlns="http://www.w3.org/2000/svg" width="512" height="512">
<path d="M0 0 C1.83893829 -0.00935994 1.83893829 -0.00935994 3.71502686 -0.01890898 C7.11067264 -0.03209356 10.50543213 -0.02736248 13.90102386 -0.0149641 C17.56571995 -0.0059106 21.23033881 -0.0198848 24.89501953 -0.03088379 C32.07118816 -0.04867046 39.24718945 -0.04482842 46.42336464 -0.03323323 C52.25556435 -0.02419974 58.08771717 -0.02297453 63.91992188 -0.02732849 C64.74998497 -0.02794142 65.58004807 -0.02855436 66.43526459 -0.02918586 C68.12152101 -0.03046476 69.80777742 -0.03176162 71.49403381 -0.03307623 C87.30614256 -0.04448245 103.11815854 -0.03136766 118.93025208 -0.00987476 C132.49781867 0.00799627 146.06524837 0.00489218 159.6328125 -0.0135498 C175.38832859 -0.03495577 191.14376339 -0.04338381 206.89929199 -0.03110075 C208.57934569 -0.02982655 210.2593994 -0.02856907 211.93945312 -0.02732849 C212.76607201 -0.02671139 213.59269089 -0.02609429 214.44435883 -0.02545848 C220.26956636 -0.02200476 226.09472233 -0.02783441 231.91992188 -0.0372467 C239.01891224 -0.04846503 246.11772569 -0.04543022 253.21669579 -0.02412373 C256.83875643 -0.01361096 260.4605221 -0.00949506 264.08258057 -0.02272034 C268.00834553 -0.03683776 271.93362745 -0.01998152 275.859375 0 C277.00508972 -0.00892289 278.15080444 -0.01784577 279.33123779 -0.02703905 C285.33085387 0.03237804 289.35085276 0.20862791 293.9296875 4.50793457 C298.8350824 9.82747162 298.48550609 14.96430849 298.41070557 21.82138062 C298.41412327 22.96581827 298.41754097 24.11025593 298.42106223 25.28937352 C298.42765416 29.12664163 298.40564203 32.96321129 298.38378906 36.80041504 C298.38043351 39.55003807 298.38311773 42.29964744 298.38555908 45.04927063 C298.38765506 50.97024652 298.3751201 56.8910459 298.35260773 62.81197739 C298.32008006 71.37258752 298.30967994 79.93311242 298.30465576 88.49377765 C298.2959043 102.38331061 298.2692928 116.27274953 298.23144531 130.16223145 C298.19472135 143.6534376 298.16641148 157.1446182 298.14941406 170.63586426 C298.14836317 171.46765968 298.14731227 172.29945511 298.14622954 173.15645646 C298.14100933 177.32938837 298.13595451 181.50232046 298.13098192 185.67525268 C298.08952454 220.28621368 298.01908019 254.89706544 297.9296875 289.50793457 C298.74540726 289.70365051 299.56112701 289.89936646 300.40156555 290.10101318 C301.47601425 290.36323669 302.55046295 290.62546021 303.6574707 290.89562988 C305.25230034 291.2820163 305.25230034 291.2820163 306.87934875 291.6762085 C310.89120161 292.77010754 314.44674286 294.33121055 318.1171875 296.25793457 C318.79571777 296.60573975 319.47424805 296.95354492 320.17333984 297.31188965 C325.57863199 300.15803905 330.32495189 303.49007703 334.9296875 307.50793457 C335.89777344 308.28008301 336.86585938 309.05223145 337.86328125 309.84777832 C347.46381831 317.86176046 353.50812022 329.01789591 357.9296875 340.50793457 C358.36410156 341.62039551 358.79851562 342.73285645 359.24609375 343.87902832 C365.76417912 363.8875064 363.17449472 386.23515642 354.1171875 404.88293457 C351.00884175 410.97095975 347.41174004 416.33223105 342.9296875 421.50793457 C342.33285156 422.30070801 341.73601562 423.09348145 341.12109375 423.91027832 C332.92104681 433.63047656 321.66956008 440.05337772 309.9296875 444.50793457 C308.81851562 444.94105957 307.70734375 445.37418457 306.5625 445.82043457 C285.35978343 452.74377059 262.68009902 449.27094838 243.20458984 439.41418457 C238.21753248 436.79518331 238.21753248 436.79518331 236.33071709 434.91227627 C232.46718556 432.65252968 228.54416781 433.1007615 224.14993286 433.13612366 C223.14619468 433.13229909 222.14245649 433.12847453 221.108302 433.12453407 C217.73498431 433.11522643 214.36207462 433.12725495 210.98876953 433.13903809 C208.57429839 433.13657098 206.15982832 433.13273348 203.74536133 433.12762451 C198.54086742 433.11927598 193.33645281 433.11979844 188.13196182 433.12780952 C180.60059491 433.13903757 173.06935369 433.13000316 165.53799771 433.11524772 C153.31032746 433.09147113 141.08267271 433.07810964 128.85498047 433.07409668 C128.1231251 433.07385181 127.39126974 433.07360694 126.63723694 433.07335465 C118.47308279 433.07080903 110.30892983 433.07024178 102.14477539 433.07128906 C99.18489584 433.07162208 96.22501628 433.07190748 93.26513672 433.07214355 C92.53477912 433.07220634 91.80442152 433.07226913 91.05193187 433.07233382 C78.87246882 433.07293869 66.69307733 433.05805542 54.5136441 433.0313105 C47.00178452 433.01550348 39.49015592 433.01324926 31.97829388 433.02844452 C26.22210104 433.03902707 20.46608501 433.02922107 14.70991516 433.0118866 C12.34842366 433.00815294 9.98690994 433.01128973 7.62543869 433.02175713 C4.40442339 433.03508449 1.18438503 433.02395451 -2.03659058 433.00672913 C-3.44204221 433.02143929 -3.44204221 433.02143929 -4.8758868 433.03644663 C-10.42446437 432.97498224 -13.76912669 432.3514885 -18.0703125 428.50793457 C-21.63160109 424.00011359 -22.57069718 421.06957192 -22.57367706 415.35205078 C-22.57949083 414.65131534 -22.58530459 413.95057989 -22.59129453 413.22861004 C-22.60589219 410.88061187 -22.5920113 408.53365948 -22.57824707 406.18566895 C-22.5828561 404.48534358 -22.58920903 402.7850222 -22.59715605 401.08470917 C-22.61387228 396.41229221 -22.60559258 391.74020157 -22.59321117 387.06778336 C-22.5841724 382.02884955 -22.59812459 376.98997241 -22.60913086 371.9510498 C-22.62693319 362.07978744 -22.62306845 352.20864662 -22.6114803 342.33737946 C-22.602453 334.31601462 -22.60121893 326.29468389 -22.60557556 318.27331543 C-22.60618849 317.13241188 -22.60680143 315.99150832 -22.60743293 314.81603193 C-22.60871181 312.49843151 -22.61000866 310.1808311 -22.6113233 307.86323071 C-22.62273412 286.12239797 -22.6096075 264.38163265 -22.58812183 242.64081097 C-22.57025041 223.97929756 -22.57335437 205.31788368 -22.59179688 186.65637207 C-22.6131947 164.99423839 -22.62163543 143.33216383 -22.60934782 121.67002106 C-22.6080736 119.36086528 -22.60681612 117.0517095 -22.60557556 114.74255371 C-22.60495846 113.60635448 -22.60434136 112.47015525 -22.60370556 111.29952574 C-22.6002494 103.28621726 -22.60608674 95.27294623 -22.61549377 87.25964355 C-22.62670305 77.49635111 -22.62369625 67.73318734 -22.6023708 57.96990967 C-22.59184598 52.98689694 -22.58776296 48.00409887 -22.60096741 43.02108765 C-22.61286745 38.46142047 -22.60636825 33.90216737 -22.5850572 29.34253788 C-22.58058099 27.69121238 -22.58288019 26.03985205 -22.59256035 24.38854885 C-22.60469769 22.14647236 -22.59227819 19.90582015 -22.57367706 17.66381836 C-22.57302765 16.41779091 -22.57237824 15.17176346 -22.57170916 13.8879776 C-21.80646782 8.72929016 -19.30929532 5.67128013 -15.57470703 2.16468048 C-10.40018193 -0.28164034 -5.65698512 -0.0440569 0 0 Z " fill="#EFEFEF" transform="translate(86.0703125,31.4920654296875)"/>
<path d="M0 0 C1.83893829 -0.00935994 1.83893829 -0.00935994 3.71502686 -0.01890898 C7.11067264 -0.03209356 10.50543213 -0.02736248 13.90102386 -0.0149641 C17.56571995 -0.0059106 21.23033881 -0.0198848 24.89501953 -0.03088379 C32.07118816 -0.04867046 39.24718945 -0.04482842 46.42336464 -0.03323323 C52.25556435 -0.02419974 58.08771717 -0.02297453 63.91992188 -0.02732849 C64.74998497 -0.02794142 65.58004807 -0.02855436 66.43526459 -0.02918586 C68.12152101 -0.03046476 69.80777742 -0.03176162 71.49403381 -0.03307623 C87.30614256 -0.04448245 103.11815854 -0.03136766 118.93025208 -0.00987476 C132.49781867 0.00799627 146.06524837 0.00489218 159.6328125 -0.0135498 C175.38832859 -0.03495577 191.14376339 -0.04338381 206.89929199 -0.03110075 C208.57934569 -0.02982655 210.2593994 -0.02856907 211.93945312 -0.02732849 C212.76607201 -0.02671139 213.59269089 -0.02609429 214.44435883 -0.02545848 C220.26956636 -0.02200476 226.09472233 -0.02783441 231.91992188 -0.0372467 C239.01891224 -0.04846503 246.11772569 -0.04543022 253.21669579 -0.02412373 C256.83875643 -0.01361096 260.4605221 -0.00949506 264.08258057 -0.02272034 C268.00834553 -0.03683776 271.93362745 -0.01998152 275.859375 0 C277.00508972 -0.00892289 278.15080444 -0.01784577 279.33123779 -0.02703905 C285.33085387 0.03237804 289.35085276 0.20862791 293.9296875 4.50793457 C298.8350824 9.82747162 298.48550609 14.96430849 298.41070557 21.82138062 C298.41412327 22.96581827 298.41754097 24.11025593 298.42106223 25.28937352 C298.42765416 29.12664163 298.40564203 32.96321129 298.38378906 36.80041504 C298.38043351 39.55003807 298.38311773 42.29964744 298.38555908 45.04927063 C298.38765506 50.97024652 298.3751201 56.8910459 298.35260773 62.81197739 C298.32008006 71.37258752 298.30967994 79.93311242 298.30465576 88.49377765 C298.2959043 102.38331061 298.2692928 116.27274953 298.23144531 130.16223145 C298.19472135 143.6534376 298.16641148 157.1446182 298.14941406 170.63586426 C298.14836317 171.46765968 298.14731227 172.29945511 298.14622954 173.15645646 C298.14100933 177.32938837 298.13595451 181.50232046 298.13098192 185.67525268 C298.08952454 220.28621641 298.01797825 254.89706051 297.9296875 289.50793457 C287.3696875 289.50793457 276.8096875 289.50793457 265.9296875 289.50793457 C265.92160065 286.75841965 265.91351379 284.00890472 265.90518188 281.17607117 C265.8281923 255.32069132 265.74025897 229.46536539 265.64216042 203.61005688 C265.59198658 190.31617702 265.54554429 177.02231444 265.5078125 163.72839355 C265.47492545 152.1447119 265.43511256 140.56107857 265.38689744 128.97745019 C265.36159972 122.84104474 265.33982815 116.70467149 265.32634354 110.56822777 C265.31355285 104.79728664 265.29153097 99.02645576 265.26230431 93.25557518 C265.25320505 91.13310942 265.24753286 89.0106259 265.24547386 86.88814163 C265.24216787 83.99888419 265.22673576 81.10994249 265.2081604 78.2207489 C265.2110625 76.94984375 265.2110625 76.94984375 265.21402323 75.65326375 C265.17635818 71.75673881 265.14074757 69.82452468 262.9296875 66.50793457 C259.59919718 65.39777113 257.04023084 65.34940848 253.53051758 65.3026123 C252.56425697 65.28776291 252.56425697 65.28776291 251.57847595 65.27261353 C249.4520941 65.24105991 247.32568992 65.21626552 245.19921875 65.19152832 C243.72376428 65.17095348 242.24831564 65.14995687 240.77287292 65.1285553 C236.89149699 65.07338931 233.01006835 65.02395595 229.12860107 64.97570801 C225.16706659 64.92545299 221.20560856 64.86978781 217.24414062 64.8145752 C209.47271921 64.70706056 201.70123365 64.6061008 193.9296875 64.50793457 C193.9296875 59.22793457 193.9296875 53.94793457 193.9296875 48.50793457 C188.6496875 48.50793457 183.3696875 48.50793457 177.9296875 48.50793457 C177.9296875 53.78793457 177.9296875 59.06793457 177.9296875 64.50793457 C151.5296875 64.50793457 125.1296875 64.50793457 97.9296875 64.50793457 C97.9296875 59.22793457 97.9296875 53.94793457 97.9296875 48.50793457 C92.6496875 48.50793457 87.3696875 48.50793457 81.9296875 48.50793457 C81.9296875 53.78793457 81.9296875 59.06793457 81.9296875 64.50793457 C79.92100586 64.51728027 77.91232422 64.52662598 75.84277344 64.53625488 C69.20492593 64.57002722 62.56738925 64.62557724 55.9297905 64.69183731 C51.90548831 64.73134124 47.88140587 64.76351514 43.85693359 64.77893066 C39.97279509 64.79407847 36.08926062 64.82848943 32.20539093 64.87624359 C30.72389222 64.89107699 29.24230728 64.89897671 27.76073456 64.89981842 C25.68456179 64.90218417 23.61006373 64.92922663 21.53417969 64.96203613 C20.35281433 64.97091858 19.17144897 64.97980103 17.95428467 64.98895264 C14.23369689 65.6273576 13.26327271 66.59520265 10.9296875 69.50793457 C10.33699761 72.02376724 10.33699761 72.02376724 10.43190956 74.81472015 C10.41811317 76.4375201 10.41811317 76.4375201 10.40403807 78.09310389 C10.4143252 79.28102706 10.42461232 80.46895024 10.43521118 81.69287109 C10.43038235 82.95528421 10.42555352 84.21769732 10.42057836 85.51836538 C10.407737 89.02485557 10.4198979 92.53088476 10.43610692 96.03734469 C10.44925086 99.81790579 10.43936618 103.59841491 10.43234253 107.37898254 C10.42225253 114.7860441 10.4335492 122.19292725 10.45204313 129.59996665 C10.47279735 138.22176616 10.47267112 146.84352695 10.47169797 155.46534675 C10.47069637 170.84660514 10.48902948 186.2277804 10.51806641 201.60900879 C10.54624196 216.54164138 10.56040798 231.47420081 10.55908203 246.40686035 C10.55900212 247.32652948 10.55892221 248.24619861 10.55883987 249.19373649 C10.55875916 250.11179952 10.55867845 251.02986256 10.5585953 251.97574568 C10.55721615 268.9648011 10.56899266 285.95382537 10.58690173 302.94287071 C10.59293882 308.95582655 10.59506138 314.96877669 10.59596634 320.98173523 C10.59732962 328.30733086 10.60624506 335.63287399 10.62463196 342.95844734 C10.63387584 346.69763101 10.63995605 350.43674749 10.63744354 354.17594337 C10.6348547 358.22503663 10.64772886 362.2739301 10.66226196 366.32299805 C10.65916476 367.51092123 10.65606755 368.6988444 10.6528765 369.92276525 C10.65932539 371.00463189 10.66577428 372.08649852 10.67241859 373.20114899 C10.67382744 374.13613047 10.67523629 375.07111196 10.67668784 376.03442621 C10.94614703 378.66885491 11.50637331 380.28639692 12.9296875 382.50793457 C15.93928359 384.01273262 19.04366566 383.66172645 22.34536743 383.66615295 C23.5056178 383.67355992 23.5056178 383.67355992 24.68930757 383.68111652 C27.29498536 383.69653977 29.90063842 383.70486516 32.50634766 383.71325684 C34.36869018 383.72283157 36.23103051 383.73284141 38.09336853 383.74325562 C43.16125631 383.77035461 48.22915345 383.79133708 53.29707384 383.8112576 C58.58888497 383.83308641 63.88066709 383.86049026 69.17245483 383.88731384 C79.19863272 383.93728281 89.22482667 383.98220601 99.25103605 384.02533621 C110.66321819 384.07467271 122.07537122 384.12960411 133.48752522 384.1850158 C156.96821884 384.29890036 180.44894037 384.40572526 203.9296875 384.50793457 C204.52281738 386.34605713 204.52281738 386.34605713 205.12792969 388.22131348 C205.66053289 389.85079772 206.19342588 391.48018727 206.7265625 393.10949707 C206.98550293 393.91459717 207.24444336 394.71969727 207.51123047 395.54919434 C211.75347329 408.45323017 219.65066109 420.62484562 230.23828125 429.29309082 C231.12644531 430.02398926 232.01460937 430.7548877 232.9296875 431.50793457 C232.9296875 431.83793457 232.9296875 432.16793457 232.9296875 432.50793457 C201.82028831 432.59917841 170.71092449 432.66996985 139.60142326 432.71219589 C135.92894341 432.71719873 132.25646383 432.72237602 128.58398438 432.72766113 C127.85285762 432.72871037 127.12173086 432.72975962 126.36844875 432.73084065 C114.52901769 432.74824748 102.6896643 432.77978668 90.85027932 432.81654575 C78.70262188 432.8539475 66.55500514 432.87616879 54.40729249 432.88428855 C46.91103373 432.88977794 39.41499448 432.9071176 31.91880329 432.93960044 C26.17139732 432.96323722 20.42413212 432.96575634 14.67668724 432.9603653 C12.31840983 432.96146729 9.96012424 432.96944438 7.60189629 432.98475647 C4.38507746 433.00462191 1.16920217 432.99988564 -2.04763794 432.98895264 C-2.98344322 433.000604 -3.91924851 433.01225537 -4.88341153 433.02425981 C-10.43213709 432.97319413 -13.76905117 432.35236593 -18.0703125 428.50793457 C-21.6315948 424.00009681 -22.57069718 421.06958847 -22.57367706 415.35205078 C-22.57949083 414.65131534 -22.58530459 413.95057989 -22.59129453 413.22861004 C-22.60589219 410.88061187 -22.5920113 408.53365948 -22.57824707 406.18566895 C-22.5828561 404.48534358 -22.58920903 402.7850222 -22.59715605 401.08470917 C-22.61387228 396.41229221 -22.60559258 391.74020157 -22.59321117 387.06778336 C-22.5841724 382.02884955 -22.59812459 376.98997241 -22.60913086 371.9510498 C-22.62693319 362.07978744 -22.62306845 352.20864662 -22.6114803 342.33737946 C-22.602453 334.31601462 -22.60121893 326.29468389 -22.60557556 318.27331543 C-22.60618849 317.13241188 -22.60680143 315.99150832 -22.60743293 314.81603193 C-22.60871181 312.49843151 -22.61000866 310.1808311 -22.6113233 307.86323071 C-22.62273412 286.12239797 -22.6096075 264.38163265 -22.58812183 242.64081097 C-22.57025041 223.97929756 -22.57335437 205.31788368 -22.59179688 186.65637207 C-22.6131947 164.99423839 -22.62163543 143.33216383 -22.60934782 121.67002106 C-22.6080736 119.36086528 -22.60681612 117.0517095 -22.60557556 114.74255371 C-22.60495846 113.60635448 -22.60434136 112.47015525 -22.60370556 111.29952574 C-22.6002494 103.28621726 -22.60608674 95.27294623 -22.61549377 87.25964355 C-22.62670305 77.49635111 -22.62369625 67.73318734 -22.6023708 57.96990967 C-22.59184598 52.98689694 -22.58776296 48.00409887 -22.60096741 43.02108765 C-22.61286745 38.46142047 -22.60636825 33.90216737 -22.5850572 29.34253788 C-22.58058099 27.69121238 -22.58288019 26.03985205 -22.59256035 24.38854885 C-22.60469769 22.14647236 -22.59227819 19.90582015 -22.57367706 17.66381836 C-22.57302765 16.41779091 -22.57237824 15.17176346 -22.57170916 13.8879776 C-21.80646782 8.72929016 -19.30929532 5.67128013 -15.57470703 2.16468048 C-10.40018193 -0.28164034 -5.65698512 -0.0440569 0 0 Z " fill="#009FC7" transform="translate(86.0703125,31.4920654296875)"/>
<path d="M0 0 C1.20348083 -0.00006042 1.20348083 -0.00006042 2.43127441 -0.00012207 C4.12239443 0.00522359 5.8135146 0.02276578 7.50439453 0.05175781 C10.08573724 0.09362006 12.66446867 0.09282315 15.24609375 0.0859375 C16.89324721 0.09643096 18.54038728 0.10936992 20.1875 0.125 C21.3392572 0.12530212 21.3392572 0.12530212 22.51428223 0.12561035 C27.02599744 0.22473308 30.01087988 0.78722566 33.59375 3.59375 C34.59375 5.59375 34.59375 5.59375 34.41796875 8.82421875 C34.26437524 13.26965367 34.33900936 16.31683837 35.59375 20.59375 C38.93569737 23.29489787 42.09186914 24.71039136 46.0703125 26.22265625 C49.1772009 27.43165606 51.09925446 28.52859204 53.59375 30.65625 C56.43764518 32.95765084 56.43764518 32.95765084 59.65625 32.15625 C62.68219565 30.62653623 62.68219565 30.62653623 65.59375 28.46875 C69.05461303 26.30571061 70.59632304 25.82828526 74.59375 26.59375 C79.04846805 30.38905255 81.70047499 34.75776176 84.53125 39.78125 C85.40153728 41.30384666 86.27262796 42.82598441 87.14453125 44.34765625 C87.5617041 45.07871582 87.97887695 45.80977539 88.40869141 46.56298828 C89.92959202 49.16926174 91.57677004 51.68752674 93.21875 54.21875 C95.56638942 58.15823608 96.59606787 60.94663989 95.59375 65.59375 C92.31776437 69.86245855 88.31280953 72.1897008 83.59375 74.59375 C82.93375 74.59375 82.27375 74.59375 81.59375 74.59375 C81.75601074 75.16359619 81.91827148 75.73344238 82.08544922 76.32055664 C82.59852414 78.61510061 82.72300026 80.61758026 82.7265625 82.96484375 C82.72785156 83.78662109 82.72914063 84.60839844 82.73046875 85.45507812 C82.72660156 86.30521484 82.72273437 87.15535156 82.71875 88.03125 C82.72261719 88.87751953 82.72648438 89.72378906 82.73046875 90.59570312 C82.72400437 94.72320952 82.635022 98.56915106 81.59375 102.59375 C82.439375 102.820625 83.285 103.0475 84.15625 103.28125 C88.50013448 104.93982407 93.43393453 107.27411905 95.59375 111.59375 C96.52859147 117.80996388 93.52997885 122.09376024 90.53125 127.28125 C89.78004883 128.60938721 89.78004883 128.60938721 89.01367188 129.96435547 C78.89902488 147.72356675 78.89902488 147.72356675 74.59375 150.59375 C69.85040001 151.51928171 67.39889177 149.98962365 63.53125 147.46875 C62.30728516 146.59863281 62.30728516 146.59863281 61.05859375 145.7109375 C58.64539921 144.31132152 58.64539921 144.31132152 56.12109375 145.19921875 C53.39865806 146.70139733 50.80674098 148.30715859 48.21875 150.03125 C44.09949678 152.70681366 40.18184383 154.86047011 35.59375 156.59375 C35.55636719 157.54636719 35.51898438 158.49898437 35.48046875 159.48046875 C35.41472656 160.73472656 35.34898437 161.98898437 35.28125 163.28125 C35.22324219 164.52261719 35.16523438 165.76398438 35.10546875 167.04296875 C34.57815835 170.70193937 33.8555131 172.69804856 31.59375 175.59375 C27.8240619 176.8503127 24.27657257 176.77550362 20.34765625 176.796875 C19.54013412 176.80257507 18.732612 176.80827515 17.90061951 176.81414795 C16.19344388 176.82358834 14.48625011 176.83012812 12.77905273 176.83398438 C10.16943625 176.8437009 7.56060393 176.8747369 4.95117188 176.90625 C3.29167134 176.91277933 1.63216518 176.91803007 -0.02734375 176.921875 C-0.80661728 176.9342218 -1.58589081 176.9465686 -2.38877869 176.95928955 C-5.62902164 176.94598287 -7.99008795 176.81914875 -10.86743164 175.26074219 C-12.40625 173.59375 -12.40625 173.59375 -13.40625 170.59375 C-13.31923828 169.05460937 -13.31923828 169.05460937 -13.23046875 167.484375 C-13.08008718 163.47992875 -13.19752017 160.42789301 -14.40625 156.59375 C-17.74871126 153.97229903 -20.95540271 152.52440571 -24.8828125 151 C-27.96725671 149.76895797 -29.91723259 148.64860417 -32.40625 146.53125 C-35.24173243 144.23372501 -35.24173243 144.23372501 -38.40625 145.03125 C-41.22701874 146.44364946 -41.22701874 146.44364946 -43.08984375 147.671875 C-46.16941718 149.61975664 -48.31444406 150.58569685 -51.96875 150.90625 C-55.71495571 149.47588055 -56.17077053 148.91905353 -58.2265625 145.6953125 C-58.74387939 144.88457275 -59.26119629 144.07383301 -59.79418945 143.23852539 C-62.52398307 138.75997712 -65.14125365 134.22384317 -67.71875 129.65625 C-68.25564453 128.71201172 -68.79253906 127.76777344 -69.34570312 126.79492188 C-75.01883929 116.80075893 -75.01883929 116.80075893 -74.40625 111.59375 C-71.07414747 107.35289223 -67.13720284 105.00385805 -62.40625 102.59375 C-61.74625 102.59375 -61.08625 102.59375 -60.40625 102.59375 C-60.56867188 101.96597656 -60.73109375 101.33820313 -60.8984375 100.69140625 C-61.592442 96.4579788 -61.55081813 92.31340905 -61.53125 88.03125 C-61.53511719 87.18111328 -61.53898438 86.33097656 -61.54296875 85.45507812 C-61.54167969 84.63330078 -61.54039062 83.81152344 -61.5390625 82.96484375 C-61.53793457 82.22161865 -61.53680664 81.47839355 -61.53564453 80.71264648 C-61.40425151 78.56102379 -60.99544579 76.66295646 -60.40625 74.59375 C-61.251875 74.366875 -62.0975 74.14 -62.96875 73.90625 C-67.31263448 72.24767593 -72.24643453 69.91338095 -74.40625 65.59375 C-75.66311181 58.07301594 -71.52845912 52.82020766 -67.71875 46.59375 C-67.09291016 45.53929687 -66.46707031 44.48484375 -65.82226562 43.3984375 C-56.68709725 28.13170584 -56.68709725 28.13170584 -52.28125 26.28125 C-47.27611777 26.6848897 -44.20874792 28.72162744 -40.0546875 31.44140625 C-37.48129709 32.87735117 -37.48129709 32.87735117 -34.90625 31.9921875 C-32.20137313 30.479147 -29.61090438 28.87478766 -27.03125 27.15625 C-22.91199678 24.48068634 -18.99434383 22.32702989 -14.40625 20.59375 C-14.39207031 19.56894531 -14.37789062 18.54414063 -14.36328125 17.48828125 C-14.31635984 16.12756029 -14.26811256 14.76688459 -14.21875 13.40625 C-14.21294922 12.73271484 -14.20714844 12.05917969 -14.20117188 11.36523438 C-14.04351329 7.77412209 -13.55153831 5.78795385 -11.38745117 2.89526367 C-7.59157245 -0.03518827 -4.60448202 -0.0983172 0 0 Z " fill="#0C5179" transform="translate(213.40625,159.40625)"/>
<path d="M0 0 C12.56169527 9.90278469 21.0459808 21.73518696 26.77734375 36.62890625 C27.21175781 37.74136719 27.64617187 38.85382813 28.09375 40 C34.61183537 60.00847808 32.02215097 82.3561281 22.96484375 101.00390625 C19.856498 107.09193143 16.25939629 112.45320273 11.77734375 117.62890625 C11.18050781 118.42167969 10.58367187 119.21445312 9.96875 120.03125 C1.76870306 129.75144824 -9.48278367 136.1743494 -21.22265625 140.62890625 C-22.33382812 141.06203125 -23.445 141.49515625 -24.58984375 141.94140625 C-44.62199581 148.48251713 -66.97678772 145.84308148 -85.66015625 136.81640625 C-91.6123076 133.7827519 -96.45923621 130.33588766 -101.22265625 125.62890625 C-102.36523706 124.72892821 -103.51109651 123.8330974 -104.66015625 122.94140625 C-118.53759411 110.96065693 -127.2054513 91.59344843 -129.22265625 73.62890625 C-130.54952574 51.14757436 -125.6415692 31.21998004 -111.22265625 13.62890625 C-110.41054688 12.57316406 -110.41054688 12.57316406 -109.58203125 11.49609375 C-83.57132691 -20.70162279 -32.24090833 -24.29319407 0 0 Z " fill="#C70A50" transform="translate(417.22265625,335.37109375)"/>
<path d="M0 0 C12.69992013 9.29039202 21.18355489 21.97206828 24.16796875 37.5859375 C25.84219413 55.35034998 21.23184325 70.83028231 9.91796875 84.7734375 C0.79030737 94.68004591 -13.41315211 102.18896567 -26.99609375 102.921875 C-44.08560233 103.26842548 -59.0962771 98.7225057 -71.76953125 86.7734375 C-83.5713169 74.25639211 -88.54301134 58.79620705 -88.14453125 41.91015625 C-87.39349853 27.69999137 -80.07901055 14.23015331 -69.83203125 4.5859375 C-49.44717074 -12.23750811 -22.27571104 -14.70122303 0 0 Z " fill="#EEEFEF" transform="translate(255.83203125,201.4140625)"/>
<path d="M0 0 C1.20348083 -0.00006042 1.20348083 -0.00006042 2.43127441 -0.00012207 C4.12239443 0.00522359 5.8135146 0.02276578 7.50439453 0.05175781 C10.08573724 0.09362006 12.66446867 0.09282315 15.24609375 0.0859375 C16.89324721 0.09643096 18.54038728 0.10936992 20.1875 0.125 C21.3392572 0.12530212 21.3392572 0.12530212 22.51428223 0.12561035 C27.02599744 0.22473308 30.01087988 0.78722566 33.59375 3.59375 C34.97683781 6.35992563 34.70585196 8.60393 34.69140625 11.6953125 C34.68657227 13.51289063 34.68657227 13.51289063 34.68164062 15.3671875 C34.66907227 17.27371094 34.66907227 17.27371094 34.65625 19.21875 C34.65173828 20.4975 34.64722656 21.77625 34.64257812 23.09375 C34.63076203 26.26046292 34.61428815 29.42708356 34.59375 32.59375 C35.73589966 32.57018433 35.73589966 32.57018433 36.90112305 32.54614258 C40.3610894 32.48366547 43.8209369 32.44471828 47.28125 32.40625 C48.47943359 32.38111328 49.67761719 32.35597656 50.91210938 32.33007812 C52.06904297 32.32041016 53.22597656 32.31074219 54.41796875 32.30078125 C55.48104248 32.2850708 56.54411621 32.26936035 57.6394043 32.25317383 C61.01852331 32.64271775 62.87365964 33.58579546 65.59375 35.59375 C67.18381531 38.77388063 66.77792077 42.21345657 66.796875 45.70703125 C66.80257507 46.51359665 66.80827515 47.32016205 66.81414795 48.15116882 C66.82360195 49.86012458 66.83013352 51.5690986 66.83398438 53.27807617 C66.8436732 55.88558041 66.874685 58.49229078 66.90625 61.09960938 C66.91278185 62.76041199 66.91803161 64.42122024 66.921875 66.08203125 C66.9342218 66.85928055 66.9465686 67.63652985 66.95928955 68.43733215 C66.94069428 72.98490483 66.51725081 76.03271364 63.59375 79.59375 C60.35623322 80.67292226 58.01623229 80.70800601 54.61328125 80.69140625 C53.44990234 80.68818359 52.28652344 80.68496094 51.08789062 80.68164062 C49.87294922 80.67326172 48.65800781 80.66488281 47.40625 80.65625 C46.17970703 80.65173828 44.95316406 80.64722656 43.68945312 80.64257812 C40.65750332 80.63078065 37.62565094 80.61431921 34.59375 80.59375 C34.60946045 81.35518311 34.6251709 82.11661621 34.64135742 82.90112305 C34.70383453 86.3610894 34.74278172 89.8209369 34.78125 93.28125 C34.80638672 94.47943359 34.83152344 95.67761719 34.85742188 96.91210938 C34.86708984 98.06904297 34.87675781 99.22597656 34.88671875 100.41796875 C34.9024292 101.48104248 34.91813965 102.54411621 34.93432617 103.6394043 C34.54232676 107.03982354 33.66811927 108.8889084 31.59375 111.59375 C27.8240619 112.8503127 24.27657257 112.77550362 20.34765625 112.796875 C19.54013412 112.80257507 18.732612 112.80827515 17.90061951 112.81414795 C16.19344388 112.82358834 14.48625011 112.83012812 12.77905273 112.83398438 C10.16943625 112.8437009 7.56060393 112.8747369 4.95117188 112.90625 C3.29167134 112.91277933 1.63216518 112.91803007 -0.02734375 112.921875 C-1.19625404 112.9403952 -1.19625404 112.9403952 -2.38877869 112.95928955 C-5.62902164 112.94598287 -7.99008795 112.81914875 -10.86743164 111.26074219 C-13.82490861 108.05692611 -13.52410809 104.7546593 -13.50390625 100.61328125 C-13.50068359 99.44990234 -13.49746094 98.28652344 -13.49414062 97.08789062 C-13.48576172 95.87294922 -13.47738281 94.65800781 -13.46875 93.40625 C-13.46423828 92.17970703 -13.45972656 90.95316406 -13.45507812 89.68945312 C-13.44328065 86.65750332 -13.42681921 83.62565094 -13.40625 80.59375 C-14.20321289 80.60946045 -15.00017578 80.6251709 -15.82128906 80.64135742 C-19.4328705 80.70372589 -23.04433861 80.74274739 -26.65625 80.78125 C-27.91050781 80.80638672 -29.16476562 80.83152344 -30.45703125 80.85742188 C-31.66230469 80.86708984 -32.86757813 80.87675781 -34.109375 80.88671875 C-35.21958008 80.9024292 -36.32978516 80.91813965 -37.47363281 80.93432617 C-40.75625916 80.55310208 -42.08822998 79.91210911 -44.40625 77.59375 C-46.36446954 71.71909137 -45.71331286 64.99842829 -45.75634766 58.83398438 C-45.77291642 57.09393955 -45.80021889 55.35396305 -45.83837891 53.61425781 C-45.89321881 51.09925214 -45.9150286 48.58583593 -45.9296875 46.0703125 C-45.95235687 45.29620026 -45.97502625 44.52208801 -45.99838257 43.72451782 C-45.98317024 39.824302 -45.55283421 37.79986045 -43.27319336 34.59448242 C-39.85477853 32.20889871 -38.14345918 32.00756021 -34.01171875 32.10546875 C-32.80966797 32.12158203 -31.60761719 32.13769531 -30.36914062 32.15429688 C-29.12326172 32.19619141 -27.87738281 32.23808594 -26.59375 32.28125 C-25.32853516 32.30380859 -24.06332031 32.32636719 -22.75976562 32.34960938 C-19.64072381 32.40845922 -16.52409098 32.4906363 -13.40625 32.59375 C-13.43243408 31.80202393 -13.45861816 31.01029785 -13.4855957 30.19458008 C-13.58969122 26.59867283 -13.654619 23.00308269 -13.71875 19.40625 C-13.76064453 18.16037109 -13.80253906 16.91449219 -13.84570312 15.63085938 C-13.86181641 14.42880859 -13.87792969 13.22675781 -13.89453125 11.98828125 C-13.92071533 10.88331299 -13.94689941 9.77834473 -13.97387695 8.63989258 C-12.52432782 0.86095732 -6.97057184 -0.14883913 0 0 Z " fill="#EFEFEF" transform="translate(357.40625,343.40625)"/>
<path d="M0 0 C1.70079964 -0.00832352 1.70079964 -0.00832352 3.43595886 -0.01681519 C7.18364735 -0.02862501 10.93013045 -0.00432053 14.67773438 0.02148438 C17.28177841 0.02319516 19.88582417 0.02313013 22.48986816 0.0213623 C27.94733302 0.02141584 33.40445119 0.04114814 38.86181641 0.07324219 C45.16545045 0.11013354 51.46863051 0.11891739 57.77235842 0.11194468 C63.84380714 0.10563272 69.91507565 0.11662028 75.98649597 0.13591003 C78.56690207 0.14294482 81.14732188 0.14606399 83.72773743 0.1452179 C87.33306708 0.14701417 90.93775069 0.16838292 94.54296875 0.1953125 C95.61117355 0.1923819 96.67937836 0.18945129 97.779953 0.18643188 C106.90331966 0.29165284 106.90331966 0.29165284 110.77148438 3.61523438 C112.63779353 7.34785268 111.99947343 11.81994222 112.02148438 15.92773438 C112.05242187 17.35375977 112.05242187 17.35375977 112.08398438 18.80859375 C112.13427648 27.80459379 112.13427648 27.80459379 108.77148438 31.61523438 C106.00583055 32.53711898 104.38864736 32.73308659 101.54101562 32.71289062 C100.73857422 32.70966797 99.93613281 32.70644531 99.109375 32.703125 C98.27599609 32.69474609 97.44261719 32.68636719 96.58398438 32.67773438 C95.31651367 32.6709668 95.31651367 32.6709668 94.0234375 32.6640625 C91.93942283 32.65228841 89.85544461 32.63435328 87.77148438 32.61523438 C87.77148438 37.89523438 87.77148438 43.17523438 87.77148438 48.61523438 C61.37148437 48.61523438 34.97148437 48.61523438 7.77148438 48.61523438 C7.77148438 43.33523437 7.77148438 38.05523437 7.77148438 32.61523438 C6.44632813 32.65003906 5.12117188 32.68484375 3.75585938 32.72070312 C2.01108039 32.74884472 0.26628769 32.77614448 -1.47851562 32.80273438 C-2.35121094 32.82787109 -3.22390625 32.85300781 -4.12304688 32.87890625 C-10.57921317 32.95283182 -10.57921317 32.95283182 -13.77539062 31.29101562 C-17.35375362 27.16435507 -16.52694693 21.39121901 -16.60351562 16.24023438 C-16.64089844 15.2940625 -16.67828125 14.34789062 -16.71679688 13.37304688 C-16.72839844 12.45523438 -16.74 11.53742187 -16.75195312 10.59179688 C-16.77177246 9.75729004 -16.7915918 8.9227832 -16.81201172 8.06298828 C-14.74117623 -0.62412328 -7.28260863 -0.09042369 0 0 Z " fill="#00325A" transform="translate(176.228515625,47.384765625)"/>
<path d="M0 0 C5.28 0 10.56 0 16 0 C16 5.28 16 10.56 16 16 C42.4 16 68.8 16 96 16 C96 10.72 96 5.44 96 0 C101.28 0 106.56 0 112 0 C113.01005886 24.37608715 113.01005886 24.37608715 105.35546875 32.8125 C99.48609175 38.32414973 93.42431152 40.37071262 85.44750977 40.40405273 C84.36797531 40.41434761 84.36797531 40.41434761 83.26663208 40.42485046 C80.90801783 40.44302255 78.55007489 40.43929497 76.19140625 40.43359375 C74.53905524 40.43816019 72.88670613 40.44346713 71.23435974 40.44947815 C67.77880109 40.45839041 64.32347379 40.45600774 60.86791992 40.44604492 C56.45521906 40.43455775 52.04331876 40.454772 47.630723 40.48396206 C44.22046395 40.50237083 40.8103951 40.50202234 37.4000988 40.49632454 C35.77391372 40.49617189 34.14771528 40.50216895 32.52157784 40.51461601 C15.39054691 40.62728363 15.39054691 40.62728363 7.79296875 34.10546875 C7.26316406 33.47253906 6.73335937 32.83960938 6.1875 32.1875 C5.64480469 31.56230469 5.10210937 30.93710938 4.54296875 30.29296875 C-0.02783592 23.50040586 -0.40123184 18.08018427 -0.1875 10.0625 C-0.17396484 9.09248047 -0.16042969 8.12246094 -0.14648438 7.12304688 C-0.11139189 4.74845519 -0.057594 2.3741525 0 0 Z " fill="#F9B414" transform="translate(168,80)"/>
<path d="M0 0 C0.66461085 0.48677625 1.32922171 0.97355249 2.01397228 1.47507954 C5.67450442 3.3444595 8.76435584 3.42570886 12.77644348 3.39872742 C13.552507 3.40537424 14.32857052 3.41202107 15.12815112 3.41886932 C17.72464674 3.43749929 20.32068155 3.43489406 22.91723633 3.43237305 C24.78002575 3.44139021 26.64280922 3.45171732 28.50558472 3.46325684 C33.56092816 3.49085825 38.61615911 3.50011564 43.67156816 3.50611091 C48.95538185 3.51548637 54.23911124 3.5416891 59.52287292 3.56611633 C69.52770048 3.60980777 79.5325117 3.63833852 89.53740567 3.66143972 C100.92792167 3.68847719 112.31835298 3.73238961 123.70880854 3.77772844 C147.1391598 3.87061261 170.56953761 3.94227611 194 4 C194.39541992 5.22541504 194.79083984 6.45083008 195.19824219 7.71337891 C195.73084539 9.34286315 196.26373838 10.9722527 196.796875 12.6015625 C197.18528564 13.80921265 197.18528564 13.80921265 197.58154297 15.04125977 C201.82378579 27.9452956 209.72097359 40.11691105 220.30859375 48.78515625 C221.19675781 49.51605469 222.08492187 50.24695313 223 51 C223 51.33 223 51.66 223 52 C219.78237031 52.58502358 218.10234274 52.81423614 215 52 C203.61140179 43.02127582 197.66303055 28.62242239 194 15 C194 14.01 194 13.02 194 12 C193.02963177 12.00276538 192.05926353 12.00553076 191.0594902 12.00837994 C167.46622366 12.07492995 143.87296927 12.12425414 120.27962875 12.15543652 C108.87014178 12.17091625 97.46071675 12.1920269 86.05126953 12.22631836 C76.10870678 12.25618685 66.16618888 12.27556695 56.22358251 12.28226548 C50.95731509 12.28618206 45.691176 12.29540955 40.42494965 12.31719017 C35.47068635 12.33751501 30.51660457 12.34384191 25.56230354 12.33932304 C23.74178393 12.34015004 21.92125839 12.34613946 20.10077477 12.35761642 C17.61902152 12.37249803 15.13795749 12.36896966 12.65618896 12.36076355 C11.9324511 12.36950207 11.20871324 12.3782406 10.46304393 12.38724393 C7.36350416 12.35945872 5.28165814 12.15940804 2.55957413 10.6188097 C0.53803558 8.5204893 0.41680362 7.18986249 0.25 4.3125 C0.19328125 3.50425781 0.1365625 2.69601562 0.078125 1.86328125 C0.05234375 1.24839844 0.0265625 0.63351562 0 0 Z " fill="#0081A9" transform="translate(96,412)"/>
<path d="M0 0 C26.4 0 52.8 0 80 0 C80 5.28 80 10.56 80 16 C53.6 16 27.2 16 0 16 C0 10.72 0 5.44 0 0 Z " fill="#00A0C8" transform="translate(184,80)"/>
<path d="M0 0 C3.21142855 2.37366458 4.71584605 3.93442268 5.75 7.8125 C3.60872644 16.91291262 -7.88237859 25.0343429 -14.38110352 31.51147461 C-16.32881803 33.45377265 -18.2710593 35.4014314 -20.21289062 37.34960938 C-21.45019983 38.58625875 -22.68781868 39.82259842 -23.92578125 41.05859375 C-24.50596512 41.64080185 -25.08614899 42.22300995 -25.68391418 42.82286072 C-30.62886669 47.73883175 -30.62886669 47.73883175 -34.625 48.5 C-39.70634445 47.74720823 -42.44678549 44.53517789 -46 41 C-44.59879595 37.83248519 -42.94604268 35.69758173 -40.5 33.25708008 C-39.78585938 32.53986282 -39.07171875 31.82264557 -38.3359375 31.08369446 C-37.56507813 30.3200206 -36.79421875 29.55634674 -36 28.76953125 C-35.20851562 27.9785051 -34.41703125 27.18747894 -33.6015625 26.3724823 C-31.92944849 24.70338688 -30.25490721 23.03672011 -28.578125 21.37231445 C-26.00462992 18.81709704 -23.43924794 16.25394687 -20.875 13.68945312 C-19.25047165 12.06983928 -17.62548716 10.45068281 -16 8.83203125 C-15.22914063 8.0622847 -14.45828125 7.29253815 -13.6640625 6.49946594 C-12.94992188 5.79170517 -12.23578125 5.0839444 -11.5 4.35473633 C-10.8709375 3.72948563 -10.241875 3.10423492 -9.59375 2.46003723 C-6.52409332 -0.35208075 -4.08089976 -0.48010585 0 0 Z " fill="#C70F53" transform="translate(251,224)"/>
<path d="M0 0 C1.05239592 1.57859387 2.09336394 3.16971972 3.0078125 4.83203125 C6.51700167 11.05286659 11.11623245 15.70541082 18 18 C20.3536034 18.11532866 22.71033917 18.1694808 25.06665039 18.19287109 C25.78254333 18.20104858 26.49843628 18.20922607 27.23602295 18.21765137 C29.606559 18.24247042 31.97703505 18.25901746 34.34765625 18.2734375 C35.56597043 18.28142302 35.56597043 18.28142302 36.80889702 18.28956985 C41.1127414 18.31629358 45.41655693 18.335666 49.72045898 18.35009766 C53.2695512 18.36340412 56.81806399 18.39119604 60.36694336 18.43212891 C64.662843 18.48167176 68.95821955 18.50624565 73.25439262 18.51332474 C74.88455351 18.5200037 76.51470427 18.5351375 78.144701 18.55921555 C88.03067337 18.69685047 96.78031985 18.48443842 104.59632874 11.59237671 C107.73294624 8.16060063 109.37381216 4.27944168 111 0 C111.33 0 111.66 0 112 0 C112.6605183 7.13359763 111.01025858 12.05708668 107 18 C102.0111286 23.56254039 97.21495241 26.6762801 89.6056366 27.26069641 C88.36703384 27.2653038 87.12843109 27.26991119 85.85229492 27.2746582 C84.81928001 27.2823246 84.81928001 27.2823246 83.76539612 27.29014587 C81.50366359 27.30397014 79.24223835 27.30309019 76.98046875 27.30078125 C75.39634591 27.30467287 73.81222411 27.3090085 72.22810364 27.31376648 C68.91204442 27.32121385 65.59609169 27.32094876 62.2800293 27.31567383 C58.050253 27.30988921 53.82091602 27.32679279 49.59121227 27.3500185 C46.31990551 27.36482086 43.04870287 27.36561861 39.77736855 27.36250877 C38.21899866 27.36301899 36.66062249 27.36819991 35.10228539 27.37832069 C23.83117324 27.44252965 14.3051777 27.14924532 5.73046875 19.01953125 C0.77510851 13.23641332 -0.54193639 7.45162537 0 0 Z " fill="#D2D1D0" transform="translate(168,101)"/>
<path d="M0 0 C12.60105829 9.21807147 21.36468605 22.04046072 24.16796875 37.5859375 C24.30237033 40.27860362 24.2643608 42.88696001 24.16796875 45.5859375 C22.31733792 42.80999126 21.71316581 41.22594641 20.91796875 38.0859375 C16.58675886 23.28224996 7.55567991 12.93005334 -5.83203125 5.5859375 C-18.82177339 -1.11844554 -33.62438657 -2.84986958 -47.76953125 1.2109375 C-63.77130858 6.96755174 -74.28519533 15.90144291 -82.08203125 31.0078125 C-84.31128916 35.76137715 -85.71400553 40.46165296 -86.83203125 45.5859375 C-87.16203125 45.5859375 -87.49203125 45.5859375 -87.83203125 45.5859375 C-88.88289235 32.1874585 -82.5408282 18.93192096 -74.08203125 8.8359375 C-54.51081333 -11.9608026 -23.79694493 -15.70518644 0 0 Z " fill="#CCCECF" transform="translate(255.83203125,201.4140625)"/>
<path d="M0 0 C0.66 0.33 1.32 0.66 2 1 C1.88918323 8.11664133 -1.33796135 11.2320634 -6.25390625 16.0859375 C-6.98818344 16.82832672 -7.72246063 17.57071594 -8.47898865 18.33560181 C-10.03264201 19.89770201 -11.59396492 21.45220664 -13.16235352 22.99951172 C-15.5530042 25.36560176 -17.90699867 27.76427397 -20.25976562 30.16796875 C-21.77655414 31.68438676 -23.29536998 33.19878022 -24.81640625 34.7109375 C-25.86532799 35.78581924 -25.86532799 35.78581924 -26.93544006 36.88241577 C-31.55764419 41.37598368 -34.4850485 43.03382907 -41 43 C-43.109375 41.98828125 -43.109375 41.98828125 -44.75 40.3125 C-45.39582031 39.66925781 -46.04164063 39.02601563 -46.70703125 38.36328125 C-47.46371094 37.58339844 -48.22039062 36.80351562 -49 36 C-50.04151615 35.03077851 -51.08739077 34.06622729 -52.13671875 33.10546875 C-53.23817823 32.07158846 -54.33843893 31.03642955 -55.4375 30 C-56.23655762 29.2716394 -56.23655762 29.2716394 -57.05175781 28.52856445 C-60.82427697 24.85812091 -61.73245941 22.19623288 -62 17 C-62.09023437 16.18273437 -62.18046875 15.36546875 -62.2734375 14.5234375 C-62.47238446 10.3149441 -62.35074988 8.50549247 -59.875 4.9375 C-57 3 -57 3 -54.1875 2.25 C-47.14022182 3.9081831 -42.30073625 10.48968168 -38 16 C-41.3 19.3 -44.6 22.6 -48 26 C-45.95841971 30.08316058 -44.77758738 31.59608076 -41 34 C-38.13128132 34.91828794 -38.13128132 34.91828794 -35 34 C-26.86756445 28.25528903 -19.99826812 20.10943097 -13 13.0625 C-11.7359115 11.79338627 -10.47159044 10.52450411 -9.20703125 9.25585938 C-6.13533276 6.1732368 -3.06679992 3.08749572 0 0 Z " fill="#D2D1D2" transform="translate(254,237)"/>
<path d="M0 0 C26.4 0 52.8 0 80 0 C80 2.64 80 5.28 80 8 C53.6 8 27.2 8 0 8 C0 5.36 0 2.72 0 0 Z " fill="#0082AA" transform="translate(184,80)"/>
<path d="M0 0 C26.4 0 52.8 0 80 0 C78 6 78 6 76.29429626 7.35585022 C73.23599804 8.21450224 70.4701182 8.27825368 67.29125977 8.30639648 C66.29293625 8.31888176 66.29293625 8.31888176 65.27444458 8.33161926 C63.08003854 8.35566365 60.88592993 8.36448359 58.69140625 8.37109375 C57.1621034 8.38006313 55.63280144 8.38918503 54.10350037 8.39845276 C50.89995188 8.41492931 47.69650775 8.42264063 44.49291992 8.42553711 C40.39247851 8.43092494 36.29302036 8.46862567 32.19285679 8.51428127 C29.03493177 8.54405341 25.87724375 8.55126065 22.7191906 8.55226326 C21.20771714 8.55646399 19.69624287 8.56889265 18.18490791 8.58978081 C16.06858451 8.61670673 13.95454324 8.61186993 11.83813477 8.59936523 C10.0342202 8.60697121 10.0342202 8.60697121 8.19386292 8.61473083 C4.06920754 7.82084803 2.55599775 6.268089 0 3 C0 2.01 0 1.02 0 0 Z " fill="#F0EFEE" transform="translate(184,96)"/>
<path d="M0 0 C0.33 0 0.66 0 1 0 C1.68312221 7.31193773 -0.38851991 11.58079123 -4.0625 17.8125 C-4.56330078 18.68890137 -5.06410156 19.56530273 -5.58007812 20.46826172 C-7.03233193 22.99194987 -8.50961885 25.49867922 -10 28 C-10.38269043 28.64662598 -10.76538086 29.29325195 -11.15966797 29.95947266 C-16.25801547 38.50534365 -16.25801547 38.50534365 -20 41 C-25.64739042 40.88705219 -29.22713513 38.91829037 -33.7890625 35.86328125 C-35.99634331 34.75443173 -35.99634331 34.75443173 -38.37109375 35.6015625 C-42.66291714 37.88458297 -46.67832874 40.56684273 -50.74609375 43.22265625 C-53.96648557 44.9816938 -56.37663018 45.64476767 -60 46 C-60 43.69 -60 41.38 -60 39 C-58.99839844 38.48050781 -57.99679688 37.96101563 -56.96484375 37.42578125 C-55.62188247 36.72233337 -54.27946879 36.01783942 -52.9375 35.3125 C-52.24664307 34.9510791 -51.55578613 34.5896582 -50.84399414 34.21728516 C-47.29603415 32.33181464 -44.05560512 30.43326352 -40.9375 27.875 C-38 26 -38 26 -34.9375 26.4375 C-32 28 -32 28 -29 30.125 C-25.53913697 32.28803939 -23.99742696 32.76546474 -20 32 C-15.34945436 28.1002838 -12.80035517 23.51816816 -10 18.25 C-9.16666667 16.71354167 -8.33333333 15.17708333 -7.5 13.640625 C-7.09394531 12.88458984 -6.68789063 12.12855469 -6.26953125 11.34960938 C-4.21486615 7.54689844 -2.10762512 3.77354583 0 0 Z " fill="#CED0D0" transform="translate(308,277)"/>
<path d="M0 0 C2.50400064 3.17001907 4.48980998 6.48880163 6.46875 10.0078125 C7.1286591 11.1707132 7.78882294 12.33346937 8.44921875 13.49609375 C9.47904745 15.31590103 10.50665713 17.13686542 11.52978516 18.96044922 C12.5240784 20.7298252 13.52699513 22.49407652 14.53125 24.2578125 C15.12486328 25.3111377 15.71847656 26.36446289 16.33007812 27.44970703 C17.90645588 30.22091427 17.90645588 30.22091427 21 32 C26.64739042 31.88705219 30.22713513 29.91829037 34.7890625 26.86328125 C37 26 37 26 39.44140625 26.64453125 C42.17317919 28.09174531 44.7355115 29.66695263 47.3125 31.375 C51.76169588 34.26275722 56.20568978 36.73853292 61 39 C61 41.64 61 44.28 61 47 C55.1214043 44.58608389 49.7353627 41.75792484 44.359375 38.3671875 C40.83632577 36.31195615 40.83632577 36.31195615 37 35 C34.25623932 36.10536832 34.25623932 36.10536832 31.625 37.9375 C28.1518887 39.95143836 26.22745752 40.97389832 22.1875 41.4375 C14.65882858 38.04221681 10.61411221 27.02086758 6.6875 20.0625 C6.15060547 19.11826172 5.61371094 18.17402344 5.06054688 17.20117188 C1.38787758 10.73116052 -0.12019388 7.45202031 0 0 Z " fill="#CED0D0" transform="translate(139,277)"/>
<path d="M0 0 C0.97634399 1.22021851 0.97634399 1.22021851 1.97241211 2.46508789 C5.79622313 5.66665469 8.67843017 5.67926166 13.44140625 5.55859375 C14.24609848 5.55626236 15.05079071 5.55393097 15.87986755 5.55152893 C17.57521213 5.54181505 19.27052538 5.52008206 20.96557617 5.48706055 C23.55761866 5.43759316 26.14776208 5.42557425 28.74023438 5.41992188 C30.39064515 5.40583668 32.04103949 5.38963255 33.69140625 5.37109375 C34.46440567 5.36573105 35.23740509 5.36036835 36.03382874 5.35484314 C41.34192115 5.26191662 41.34192115 5.26191662 46 3 C46.66 2.01 47.32 1.02 48 0 C48.44680851 8.78723404 48.44680851 8.78723404 45 13 C41.2303119 14.2565627 37.68282257 14.18175362 33.75390625 14.203125 C32.54262306 14.21167511 32.54262306 14.21167511 31.30686951 14.22039795 C29.59969388 14.22983834 27.89250011 14.23637812 26.18530273 14.24023438 C23.57568625 14.2499509 20.96685393 14.2809869 18.35742188 14.3125 C16.69792134 14.31902933 15.03841518 14.32428007 13.37890625 14.328125 C12.59963272 14.3404718 11.82035919 14.3528186 11.01747131 14.36553955 C7.77722836 14.35223287 5.41616205 14.22539875 2.53881836 12.66699219 C-0.84993418 8.99597801 -0.076565 4.67046526 0 0 Z " fill="#D1D1D1" transform="translate(200,330)"/>
<path d="M0 0 C0.97851929 0.73017334 0.97851929 0.73017334 1.97680664 1.47509766 C5.81113966 3.40913981 9.17515224 3.43175858 13.37109375 3.3984375 C14.57101707 3.40274277 14.57101707 3.40274277 15.79518127 3.40713501 C17.48203237 3.40917059 19.16890735 3.40367614 20.85571289 3.39111328 C23.42583514 3.3750728 25.99437995 3.39096742 28.56445312 3.41015625 C30.20833678 3.40817331 31.85221946 3.4043286 33.49609375 3.3984375 C34.2587706 3.40451019 35.02144745 3.41058289 35.80723572 3.4168396 C40.59913678 3.3542657 43.78656644 2.51780888 48 0 C47.96682761 1.43847561 47.89726123 2.8761407 47.8125 4.3125 C47.77769531 5.11300781 47.74289062 5.91351563 47.70703125 6.73828125 C47 9 47 9 44.98339844 10.61645508 C41.14870542 12.39478612 37.70152166 12.43106985 33.55859375 12.3984375 C32.3515554 12.40274277 32.3515554 12.40274277 31.12013245 12.40713501 C29.42488905 12.40917018 27.72962188 12.40367866 26.03442383 12.39111328 C23.44233713 12.37503001 20.85180455 12.39099054 18.25976562 12.41015625 C16.60937157 12.40817413 14.95897847 12.4043311 13.30859375 12.3984375 C12.53559433 12.40451019 11.76259491 12.41058289 10.96617126 12.4168396 C7.71318291 12.37437009 5.38800693 12.21635691 2.51879883 10.61645508 C0.54517701 8.51593264 0.41511846 7.16079341 0.25 4.3125 C0.19328125 3.50425781 0.1365625 2.69601562 0.078125 1.86328125 C0.05234375 1.24839844 0.0265625 0.63351562 0 0 Z " fill="#A00028" transform="translate(344,452)"/>
<path d="M0 0 C7.04727818 1.6581831 11.88676375 8.23968168 16.1875 13.75 C12.5575 17.38 8.9275 21.01 5.1875 24.75 C-7.18438873 14.60505124 -7.18438873 14.60505124 -8.5 8.625 C-7.34172254 3.78129427 -4.8016436 1.28043829 0 0 Z " fill="#07A1C8" transform="translate(199.8125,239.25)"/>
<path d="M0 0 C-0.03317239 1.43847561 -0.10273877 2.8761407 -0.1875 4.3125 C-0.22230469 5.11300781 -0.25710938 5.91351563 -0.29296875 6.73828125 C-1 9 -1 9 -3.15820312 10.62304688 C-6.43884857 12.21263797 -8.5474058 12.34659006 -12.17578125 12.29296875 C-13.91118164 12.2784668 -13.91118164 12.2784668 -15.68164062 12.26367188 C-17.47891602 12.2259668 -17.47891602 12.2259668 -19.3125 12.1875 C-21.1387793 12.16719727 -21.1387793 12.16719727 -23.00195312 12.14648438 C-26.00175345 12.11119261 -29.00064975 12.06188481 -32 12 C-32 9.36 -32 6.72 -32 4 C-31.23856689 3.98541748 -30.47713379 3.97083496 -29.69262695 3.95581055 C-26.23208112 3.88119459 -22.77248555 3.78457741 -19.3125 3.6875 C-18.11431641 3.66494141 -16.91613281 3.64238281 -15.68164062 3.61914062 C-14.52470703 3.58369141 -13.36777344 3.54824219 -12.17578125 3.51171875 C-11.11270752 3.48553467 -10.04963379 3.45935059 -8.9543457 3.43237305 C-5.77153707 2.9665641 -2.85200943 0 0 0 Z " fill="#A00028" transform="translate(424,420)"/>
<path d="M0 0 C1.03966919 0.7266687 1.03966919 0.7266687 2.1003418 1.46801758 C5.44581522 3.23553848 7.63067622 3.42252787 11.39453125 3.51171875 C12.59658203 3.54716797 13.79863281 3.58261719 15.03710938 3.61914062 C16.90592773 3.65297852 16.90592773 3.65297852 18.8125 3.6875 C20.07771484 3.72166016 21.34292969 3.75582031 22.64648438 3.79101562 C25.76423445 3.87337129 28.88170759 3.94256529 32 4 C32 6.64 32 9.28 32 12 C27.58345745 12.08706286 23.16713543 12.14041378 18.75 12.1875 C17.49574219 12.21263672 16.24148438 12.23777344 14.94921875 12.26367188 C13.74394531 12.27333984 12.53867187 12.28300781 11.296875 12.29296875 C10.18666992 12.3086792 9.07646484 12.32438965 7.93261719 12.34057617 C4.66792325 11.96143464 3.31904216 11.28874588 1 9 C0.390625 6.73828125 0.390625 6.73828125 0.25 4.3125 C0.19328125 3.50425781 0.1365625 2.69601562 0.078125 1.86328125 C0.05234375 1.24839844 0.0265625 0.63351562 0 0 Z " fill="#A00028" transform="translate(312,420)"/>
<path d="M0 0 C5.28 0 10.56 0 16 0 C16 2.64 16 5.28 16 8 C10.72 8 5.44 8 0 8 C0 5.36 0 2.72 0 0 Z " fill="#DC9600" transform="translate(264,80)"/>
<path d="M0 0 C5.28 0 10.56 0 16 0 C16 2.64 16 5.28 16 8 C10.72 8 5.44 8 0 8 C0 5.36 0 2.72 0 0 Z " fill="#DC9600" transform="translate(168,80)"/>
<path d="M0 0 C0.639375 0.556875 1.27875 1.11375 1.9375 1.6875 C5.74607062 4.56335945 9.7936576 6.7639487 14 9 C13.67 11.64 13.34 14.28 13 17 C11.38986415 16.26290216 9.78707609 15.50974143 8.1875 14.75 C7.29417969 14.33234375 6.40085938 13.9146875 5.48046875 13.484375 C2.82116758 11.89298218 1.52303707 10.68535484 0 8 C-0.37460816 5.26286305 -0.13898721 2.77974416 0 0 Z " fill="#CED0D1" transform="translate(139,225)"/>
<path d="M0 0 C0.33 0 0.66 0 1 0 C1.60721063 7.16508539 1.60721063 7.16508539 -1 10.75 C-4.48244273 13.36183205 -8.03296964 15.23796914 -12 17 C-12.33 14.36 -12.66 11.72 -13 9 C-12.14535156 8.51789063 -11.29070312 8.03578125 -10.41015625 7.5390625 C-9.30542969 6.90742188 -8.20070313 6.27578125 -7.0625 5.625 C-5.96035156 4.99851563 -4.85820312 4.37203125 -3.72265625 3.7265625 C-0.92556953 2.28101386 -0.92556953 2.28101386 0 0 Z " fill="#CED0D0" transform="translate(308,225)"/>
<path d="M0 0 C0.763125 0.804375 1.52625 1.60875 2.3125 2.4375 C4.79430898 5.16799024 4.79430898 5.16799024 8 6 C8 8.64 8 11.28 8 14 C4.74322102 13.73593684 3.38010847 13.43253722 1.1875 10.9375 C-0.38336495 7.05167618 -0.21217982 4.17286983 0 0 Z " fill="#0081A9" transform="translate(160,74)"/>
<path d="M0 0 C0.33 0 0.66 0 1 0 C1.46077348 9.06187845 1.46077348 9.06187845 -2 13 C-4.6875 13.8125 -4.6875 13.8125 -7 14 C-7 11.36 -7 8.72 -7 6 C-6.030625 5.566875 -5.06125 5.13375 -4.0625 4.6875 C-0.72268235 3.2985139 -0.72268235 3.2985139 0 0 Z " fill="#0080A8" transform="translate(287,74)"/>
</svg>
