<?xml version="1.0" encoding="UTF-8"?>
<svg version="1.1" xmlns="http://www.w3.org/2000/svg" width="512" height="512">
<path d="M0 0 C1.51188787 -0.00734675 3.02377013 -0.01593474 4.53564453 -0.02566528 C8.62879607 -0.0478285 12.72174597 -0.05081452 16.81494927 -0.04891777 C20.2391583 -0.04879781 23.66332501 -0.05737262 27.08752221 -0.06569529 C35.17084448 -0.08491139 43.25406349 -0.08782003 51.33740234 -0.08105469 C59.65870473 -0.07441791 67.9795634 -0.09726755 76.30077583 -0.13436842 C83.46027555 -0.16512398 90.61963298 -0.17641904 97.77919739 -0.1725316 C102.04852974 -0.17046982 106.31751685 -0.1758543 110.58678627 -0.20042419 C114.60484589 -0.2227855 118.62218744 -0.22073655 122.64025116 -0.20049667 C124.10832725 -0.19710289 125.57645257 -0.20210491 127.0444622 -0.21648026 C136.64294155 -0.30392878 144.72693649 0.43164365 152.03880787 7.17533112 C159.68788103 15.25018937 159.57980545 23.66385276 159.55541992 34.28442383 C159.56276667 35.79631169 159.57135466 37.30819396 159.58108521 38.82006836 C159.60324843 42.9132199 159.60623444 47.0061698 159.60433769 51.0993731 C159.60421773 54.52358212 159.61279254 57.94774883 159.62111521 61.37194604 C159.64033131 69.45526831 159.64323995 77.53848732 159.63647461 85.62182617 C159.62983784 93.94312856 159.65268747 102.26398723 159.68978834 110.58519965 C159.7205439 117.74469938 159.73183896 124.90405681 159.72795153 132.06362122 C159.72588974 136.33295357 159.73127423 140.60194068 159.75584412 144.8712101 C159.77820542 148.88926972 159.77615647 152.90661127 159.7559166 156.92467499 C159.75252281 158.39275108 159.75752483 159.8608764 159.77190018 161.32888603 C159.8593487 170.92736538 159.12377627 179.01136032 152.38008881 186.3232317 C144.48452193 193.80246747 136.52832739 193.83717656 126.1081543 193.71289062 C124.75052868 193.7072871 123.39289694 193.70302058 122.03526306 193.70002747 C118.4825226 193.68863802 114.93015703 193.65922297 111.37756348 193.62591553 C107.74419219 193.59508631 104.11075963 193.58149483 100.47729492 193.56640625 C93.36321038 193.53434658 86.24937884 193.48322293 79.13549805 193.41992188 C79.45550781 194.50023682 79.77551758 195.58055176 80.10522461 196.69360352 C88.51682977 227.11690436 72.83699506 260.17572786 58.42797852 286.20849609 C55.80361679 290.69876216 52.96285861 295.0556577 50.13549805 299.41992188 C51.09327148 299.40421143 52.05104492 299.38850098 53.0378418 299.37231445 C56.6235295 299.31762475 60.20918104 299.2834314 63.79516602 299.25512695 C65.34112772 299.24012858 66.88704752 299.21972301 68.43286133 299.19360352 C77.86545938 299.03832188 85.50157456 299.01336349 93.82299805 304.04492188 C99.01632417 309.37860816 101.44981195 314.26667763 101.5690918 321.8034668 C101.42693654 329.92448193 99.17423074 336.85816672 96.38549805 344.40820312 C95.88731329 345.80418428 95.39085026 347.2007809 94.89599609 348.59794617 C93.86020518 351.50808971 92.8102467 354.41253669 91.74829102 357.31323242 C90.40731642 360.97684185 89.0931964 364.64934004 87.78817844 368.32588959 C73.72615759 407.9076149 55.76477336 441.93620038 16.5300293 461.41601562 C12.11817098 463.49305571 7.62607252 465.22677483 3.01049805 466.79492188 C2.3436499 467.02155518 1.67680176 467.24818848 0.98974609 467.48168945 C-13.23630947 471.98759556 -26.74054297 472.86176267 -41.54321289 472.82397461 C-43.58354056 472.82968946 -45.62386503 472.836658 -47.66418457 472.84477234 C-53.16444339 472.86259804 -58.66454174 472.86155512 -64.16482067 472.85582995 C-68.77656312 472.85272194 -73.38827545 472.85884855 -78.00001359 472.8648687 C-88.89139236 472.8788783 -99.78269264 472.87738309 -110.67407227 472.8659668 C-121.86386316 472.85449598 -133.05341408 472.86855213 -144.24317336 472.89536327 C-153.89211759 472.9176064 -163.54098698 472.92413812 -173.189955 472.91828686 C-178.9343505 472.9149358 -184.67859236 472.91720783 -190.422966 472.93453789 C-195.83061692 472.95014235 -201.2379159 472.94590355 -206.64555359 472.92723274 C-208.61458017 472.92358355 -210.58363362 472.92654614 -212.55263519 472.93711853 C-247.56158437 473.11054353 -277.66302272 460.87160503 -302.86450195 436.41992188 C-322.45775618 416.8941143 -331.25534147 391.58258453 -340.29467773 366.08056641 C-341.60386767 362.39013831 -342.93993016 358.71005235 -344.28251648 355.0316658 C-345.32781078 352.15383374 -346.35425787 349.26953171 -347.37582397 346.3832016 C-347.86027607 345.02387865 -348.35129275 343.66687359 -348.84951782 342.31253815 C-352.41136784 332.59987332 -355.49077773 322.09132752 -351.36450195 312.04492188 C-347.196498 305.19955427 -342.12008392 301.43960883 -334.36450195 299.48242188 C-332.53592086 299.10448494 -330.70377967 298.74179548 -328.86450195 298.41992188 C-329.14165039 297.90945313 -329.41879883 297.39898437 -329.7043457 296.87304688 C-334.39561498 287.4571185 -334.85535952 278.31743042 -331.93481445 268.24023438 C-328.63810035 259.5532724 -322.60844943 252.58705768 -314.4699707 248.09960938 C-299.72445535 241.77694462 -285.6580611 246.08141955 -271.48950195 251.35742188 C-269.89396461 251.92936714 -268.29761133 252.49904146 -266.70043945 253.06640625 C-255.72395982 256.99019294 -255.72395982 256.99019294 -252.86450195 258.41992188 C-252.65825195 257.14117187 -252.45200195 255.86242187 -252.23950195 254.54492188 C-249.77458639 243.68229398 -241.86913457 233.6007536 -232.8293457 227.30664062 C-227.95394736 224.38865128 -223.30425829 222.09617272 -217.86450195 220.41992188 C-218.15067383 219.72640625 -218.4368457 219.03289062 -218.73168945 218.31835938 C-225.77899741 200.28697142 -225.77899741 200.28697142 -223.15307617 193.61132812 C-222.33172777 191.43855285 -221.8822435 189.74970961 -221.86450195 187.41992188 C-223.59360532 184.47107854 -226.04459672 182.45060868 -228.61450195 180.23242188 C-230.02087625 178.92302199 -231.42189056 177.60784275 -232.81762695 176.28710938 C-233.51049805 175.63709961 -234.20336914 174.98708984 -234.91723633 174.31738281 C-244.74351247 164.74243068 -254.69849983 150.22577872 -256.20043945 136.30664062 C-256.29731263 128.37272738 -255.35083836 122.13795797 -250.55981445 115.65429688 C-249.4305176 112.02532047 -251.19018026 109.07145673 -252.61450195 105.73242188 C-258.17744547 92.35302763 -260.98162996 76.27775268 -256.23950195 62.16992188 C-251.16715611 50.8192179 -242.7498625 43.29167135 -231.4777832 38.36523438 C-220.55757141 34.41502323 -209.3867622 36.04432851 -198.86450195 40.41992188 C-187.96509964 45.92950986 -178.29433 54.78816297 -170.86450195 64.41992188 C-170.86450195 65.07992187 -170.86450195 65.73992187 -170.86450195 66.41992188 C-170.18387695 66.25492187 -169.50325195 66.08992188 -168.80200195 65.91992188 C-160.3836397 64.48700915 -153.25238486 66.24994257 -145.91918945 70.56445312 C-133.36201858 80.23055443 -125.6373969 98.34839264 -121.73486328 113.2331543 C-120.11677969 120.67565667 -120.11677969 120.67565667 -115.3293457 126.07226562 C-112.50067828 126.78718024 -112.50067828 126.78718024 -109.6027832 127.06054688 C-102.0715242 128.04895747 -97.04615953 135.15298431 -92.6965332 140.80664062 C-90.09229477 144.52142849 -87.93028882 148.38829666 -85.86450195 152.41992188 C-85.32865479 152.27917236 -84.79280762 152.13842285 -84.24072266 151.9934082 C-78.44636232 150.5749808 -73.00784558 150.06759697 -67.05200195 150.10742188 C-66.17616455 150.11233643 -65.30032715 150.11725098 -64.39794922 150.12231445 C-55.14259311 150.28903911 -47.42965504 152.14565349 -39.0246582 156.03320312 C-38.05278564 156.48091064 -37.08091309 156.92861816 -36.07958984 157.38989258 C-35.34861084 157.72980225 -34.61763184 158.06971191 -33.86450195 158.41992188 C-33.86911092 157.71277102 -33.87371988 157.00562016 -33.87846851 156.27704048 C-33.98907029 139.04075415 -34.07171788 121.80455838 -34.12356281 104.56799507 C-34.14930349 96.23237458 -34.18437437 87.8969915 -34.24169922 79.56152344 C-34.29166149 72.29314314 -34.32382302 65.02493485 -34.33494443 57.75638759 C-34.34144165 53.9105269 -34.35662417 50.06515815 -34.39315224 46.21945572 C-34.42731531 42.59305535 -34.43751466 38.96734536 -34.43004036 35.34079933 C-34.4320527 33.38885778 -34.45884102 31.43698991 -34.48660278 29.48524475 C-34.43705506 20.95508774 -33.03261587 13.95132935 -27.10890675 7.51130867 C-19.02047731 -0.12501118 -10.62732593 -0.02440104 0 0 Z M-15.7010498 19.1652832 C-19.25121181 24.50605054 -18.54278404 30.25743885 -18.47973633 36.49414062 C-18.48323887 37.94488168 -18.48889896 39.39561889 -18.49655151 40.84634399 C-18.5107904 44.78039801 -18.4937474 48.71375231 -18.47026634 52.64773941 C-18.45014715 56.76670307 -18.45603745 60.88563796 -18.45837402 65.00463867 C-18.45832046 71.92150399 -18.43857053 78.83809604 -18.40649414 85.75488281 C-18.36960175 93.74897026 -18.36081869 101.74269976 -18.36779165 109.73686123 C-18.37409934 117.43038702 -18.36333747 125.12379021 -18.34382629 132.81729126 C-18.33565662 136.0899124 -18.33294195 139.36247084 -18.33451843 142.63510132 C-18.33539811 146.48968951 -18.32115923 150.34393814 -18.2952919 154.19843674 C-18.2881366 155.61214934 -18.28604343 157.02589808 -18.28940964 158.43962479 C-18.29313084 160.37098722 -18.27651813 162.30235682 -18.25891113 164.23364258 C-18.25518242 165.31394241 -18.2514537 166.39424225 -18.247612 167.50727844 C-17.80628756 170.86250426 -16.87326065 172.71593671 -14.86450195 175.41992188 C-10.35721126 178.42478233 -6.35216906 178.54482119 -1.02662659 178.55363464 C0.14114319 178.55789963 1.30891296 178.56216461 2.5120697 178.56655884 C3.78441971 178.56610565 5.05676971 178.56565247 6.36767578 178.56518555 C7.72811983 178.56817939 9.08856304 178.57158245 10.44900513 178.57536316 C14.13701537 178.58418338 17.82500241 178.58654041 21.51302218 178.58717895 C23.81853459 178.58789045 26.12404113 178.59002666 28.42955208 178.59267616 C36.47647602 178.60192231 44.52338342 178.60601187 52.5703125 178.60522461 C60.06557876 178.60462368 67.56077309 178.61518042 75.05602115 178.63096827 C81.4969302 178.64405079 87.93781575 178.64940822 94.37873799 178.6487692 C98.22308798 178.64851447 102.067374 178.6513522 105.91171074 178.66194725 C109.52735342 178.67164048 113.14287109 178.67169906 116.75851822 178.66443062 C118.71348426 178.66288945 120.66845031 178.67122256 122.62339783 178.67987061 C124.37928223 178.67357887 124.37928223 178.67357887 126.17063904 178.66716003 C127.18364799 178.6677048 128.19665693 178.66824957 129.24036312 178.66881084 C133.97935439 178.26140923 137.27164431 177.13020162 140.94799805 174.10742188 C144.36581472 169.90838996 144.26047888 165.85833612 144.26921082 160.58204651 C144.2734758 159.41427673 144.27774078 158.24650696 144.28213501 157.04335022 C144.28168182 155.77100021 144.28122864 154.49865021 144.28076172 153.18774414 C144.28375557 151.82730009 144.28715862 150.46685689 144.29093933 149.10641479 C144.29975955 145.41840455 144.30211658 141.73041751 144.30275512 138.04239774 C144.30346662 135.73688533 144.30560283 133.43137879 144.30825233 131.12586784 C144.31749848 123.0789439 144.32158805 115.0320365 144.32080078 106.98510742 C144.32019985 99.48984116 144.33075659 91.99464683 144.34654444 84.49939877 C144.35962696 78.05848972 144.36498439 71.61760417 144.36434537 65.17668194 C144.36409064 61.33233194 144.36692837 57.48804592 144.37752342 53.64370918 C144.38721665 50.0280665 144.38727523 46.41254883 144.38000679 42.7969017 C144.37846562 40.84193567 144.38679873 38.88696961 144.39544678 36.93202209 C144.39125229 35.7614325 144.3870578 34.5908429 144.38273621 33.38478088 C144.38328097 32.37177194 144.38382574 31.35876299 144.38438702 30.3150568 C143.9769854 25.57606553 142.84577779 22.28377561 139.82299805 18.60742188 C135.62396613 15.1896052 131.57391229 15.29494104 126.29762268 15.28620911 C125.12985291 15.28194412 123.96208313 15.27767914 122.75892639 15.27328491 C120.85040138 15.27396469 120.85040138 15.27396469 118.90332031 15.2746582 C117.54287626 15.27166436 116.18243306 15.2682613 114.82199097 15.26448059 C111.13398072 15.25566037 107.44599369 15.25330334 103.75797391 15.2526648 C101.4524615 15.2519533 99.14695496 15.24981709 96.84144402 15.24716759 C88.79452007 15.23792144 80.74761267 15.23383188 72.70068359 15.23461914 C65.20541733 15.23522007 57.710223 15.22466333 50.21497494 15.20887548 C43.77406589 15.19579296 37.33318034 15.19043553 30.89225811 15.19107455 C27.04790811 15.19132928 23.20362209 15.18849155 19.35928535 15.1778965 C15.74364268 15.16820327 12.128125 15.16814469 8.51247787 15.17541313 C6.55751184 15.1769543 4.60254578 15.16862119 2.64759827 15.15997314 C0.89171387 15.16626488 0.89171387 15.16626488 -0.89964294 15.17268372 C-1.91265189 15.17213895 -2.92566084 15.17159418 -3.96936703 15.17103291 C-8.41876184 15.55353849 -11.91195969 16.83381139 -15.7010498 19.1652832 Z M-237.86450195 62.41992188 C-242.97838079 69.51336671 -242.61382381 77.99974924 -241.86450195 86.41992188 C-240.25170524 95.00921639 -237.06219697 102.66196732 -233.03637695 110.38476562 C-231.65268848 113.96851876 -231.49781126 116.60814945 -231.86450195 120.41992188 C-234.17700195 123.10742188 -234.17700195 123.10742188 -236.86450195 125.41992188 C-239.29328644 127.93245755 -239.82002032 129.09584142 -240.30200195 132.60742188 C-239.73904292 137.51320773 -238.18075105 141.09347462 -235.86450195 145.41992188 C-235.20514648 146.65355469 -235.20514648 146.65355469 -234.5324707 147.91210938 C-229.29124129 156.85537171 -222.08122881 164.06735075 -214.86450195 171.41992188 C-214.24567139 172.05486572 -213.62684082 172.68980957 -212.98925781 173.34399414 C-212.37961182 173.96330811 -211.76996582 174.58262207 -211.1418457 175.22070312 C-210.59520264 175.77669189 -210.04855957 176.33268066 -209.48535156 176.90551758 C-207.88473379 178.40101871 -206.21521421 179.59808441 -204.42700195 180.85742188 C-201.78622491 183.49819892 -201.41189928 183.92908662 -201.17700195 187.41992188 C-201.48976804 191.79864713 -203.61321908 193.56513691 -206.86450195 196.41992188 C-208.25000092 199.79796832 -207.66130327 201.79712339 -206.30200195 205.10742188 C-205.99133789 205.89503906 -205.68067383 206.68265625 -205.3605957 207.49414062 C-204.6200293 208.94240234 -204.6200293 208.94240234 -203.86450195 210.41992188 C-203.52813721 211.14953125 -203.19177246 211.87914062 -202.84521484 212.63085938 C-200.78151841 216.45202883 -199.09094487 218.86538522 -195.06591797 220.68530273 C-191.53694966 221.65812774 -188.02758476 222.38459223 -184.42700195 223.04492188 C-183.10804665 223.31409852 -181.78985426 223.58703788 -180.47241211 223.86352539 C-177.70552232 224.44055294 -174.93576672 224.99913673 -172.1628418 225.54638672 C-167.80034321 226.41853793 -163.46692581 227.40031722 -159.1340332 228.40820312 C-158.42688675 228.5721759 -157.7197403 228.73614868 -156.99116516 228.90509033 C-155.59169231 229.22988846 -154.19228229 229.55495749 -152.79293823 229.88031006 C-149.5242374 230.63978617 -146.25442369 231.39276054 -142.98168945 232.13476562 C-141.89484863 232.38347412 -140.80800781 232.63218262 -139.68823242 232.88842773 C-136.68822577 233.54323916 -136.68822577 233.54323916 -132.86450195 233.41992188 C-134.57353296 228.50767847 -137.23454056 224.27509394 -139.92700195 219.85742188 C-140.45011963 218.99246094 -140.9732373 218.1275 -141.51220703 217.23632812 C-143.29248853 214.29519496 -145.07841301 211.35753147 -146.86450195 208.41992188 C-148.19025015 206.23386183 -149.51576323 204.04765918 -150.84106445 201.86132812 C-154.07362049 196.53045377 -157.31046864 191.20219727 -160.54890442 185.87489319 C-164.13721054 179.97192319 -167.72233803 174.06702602 -171.30703735 168.16186523 C-173.07605141 165.24779862 -174.84528819 162.33386724 -176.61450195 159.41992188 C-177.32283635 158.25325585 -178.03116968 157.08658919 -178.73950195 155.91992188 C-179.09012695 155.34242188 -179.44075195 154.76492187 -179.80200195 154.16992188 C-180.86450195 152.41992187 -181.92700195 150.66992188 -182.98950195 148.91992188 C-183.51538658 148.05376251 -183.51538658 148.05376251 -184.05189514 147.17010498 C-184.76059301 146.00283312 -185.46928237 144.8355561 -186.17796326 143.66827393 C-187.94314976 140.76082447 -189.70848143 137.85346335 -191.47412109 134.94628906 C-194.72912566 129.58649978 -197.98290816 124.22598375 -201.23139954 118.86224365 C-202.35349915 117.00976261 -203.47626965 115.15768947 -204.59912109 113.30566406 C-206.05018713 110.91207887 -207.49826037 108.51672014 -208.94433594 106.12011719 C-211.94474403 101.16110445 -214.95789756 96.22471515 -218.15356445 91.38867188 C-218.63059814 90.6600293 -219.10763184 89.93138672 -219.59912109 89.18066406 C-220.44160849 87.90492842 -221.2986141 86.63856959 -222.17480469 85.38574219 C-225.17013171 80.84055783 -225.35919844 77.68927326 -224.86450195 72.41992188 C-222.67696912 69.72757377 -221.2802624 69.48055361 -217.86450195 68.98242188 C-214.09619391 69.5319668 -213.34325127 70.59183062 -210.86450195 73.41992188 C-209.64104006 75.22900894 -208.47461685 77.07736711 -207.3527832 78.95117188 C-206.68633789 80.0571875 -206.01989258 81.16320312 -205.33325195 82.30273438 C-204.61445563 83.50843593 -203.89570696 84.71416589 -203.17700195 85.91992188 C-202.42110697 87.17810432 -201.66458528 88.43591045 -200.9074707 89.69335938 C-199.3355404 92.30518966 -197.76631537 94.91861632 -196.19897461 97.53320312 C-192.9590384 102.93337631 -189.68645648 108.31364332 -186.41390991 113.6940918 C-184.64587791 116.601753 -182.8803245 119.51091854 -181.11450195 122.41992188 C-180.4061803 123.58659563 -179.69784697 124.7532623 -178.98950195 125.91992188 C-177.57283529 128.25325521 -176.15616862 130.58658854 -174.73950195 132.91992188 C-174.38889709 133.49738663 -174.03829224 134.07485138 -173.67706299 134.66981506 C-172.96851877 135.83683326 -172.25998199 137.00385596 -171.55145264 138.17088318 C-169.78390666 141.08220851 -168.0162328 143.99345603 -166.24829102 146.90454102 C-162.65394583 152.82329504 -159.06193669 158.7434489 -155.47387695 164.66601562 C-148.79789853 175.68382979 -142.11223591 186.69586605 -135.36450195 197.66992188 C-134.81826172 198.56380615 -134.27202148 199.45769043 -133.70922852 200.37866211 C-133.21390625 201.18118408 -132.71858398 201.98370605 -132.20825195 202.81054688 C-131.77706055 203.51211914 -131.34586914 204.21369141 -130.90161133 204.93652344 C-130.55936523 205.42604492 -130.21711914 205.91556641 -129.86450195 206.41992188 C-129.53450195 206.41992188 -129.20450195 206.41992188 -128.86450195 206.41992188 C-128.65696289 205.41574219 -128.44942383 204.4115625 -128.2355957 203.37695312 C-124.66942882 187.13751567 -117.56084724 173.22072201 -103.73950195 163.23242188 C-102.79075195 162.63429688 -101.84200195 162.03617187 -100.86450195 161.41992188 C-102.09056046 154.65271581 -107.0185488 147.80810982 -111.92700195 143.10742188 C-114.75894224 141.0382811 -114.75894224 141.0382811 -117.86450195 142.10742188 C-118.85450195 142.54054688 -119.84450195 142.97367187 -120.86450195 143.41992188 C-125.01477689 143.74543363 -126.3387577 143.77041804 -129.86450195 141.41992188 C-130.82836914 138.96826172 -130.82836914 138.96826172 -131.66137695 135.88085938 C-131.9766333 134.75035156 -132.29188965 133.61984375 -132.61669922 132.45507812 C-132.94597412 131.24722656 -133.27524902 130.039375 -133.61450195 128.79492188 C-140.79417969 102.09488599 -140.79417969 102.09488599 -158.71606445 82.30664062 C-161.7703262 81.04606351 -163.79774668 81.29793824 -166.86450195 82.41992188 C-167.52450195 82.74992187 -168.18450195 83.07992187 -168.86450195 83.41992188 C-175.71272811 84.22893512 -175.71272811 84.22893512 -178.4675293 82.29394531 C-179.95792027 80.69971774 -181.2611224 79.0543429 -182.55200195 77.29492188 C-182.99866211 76.72515625 -183.44532227 76.15539062 -183.90551758 75.56835938 C-184.80137353 74.42416018 -185.68953831 73.27389652 -186.56982422 72.11767578 C-193.89663185 62.50978963 -203.66106508 54.05472668 -215.9855957 52.08007812 C-225.19062094 51.63149015 -231.7221943 56.00871136 -237.86450195 62.41992188 Z M-102.86450195 183.35742188 C-110.11829619 192.39316557 -113.2216589 202.46467952 -113.23950195 213.91992188 C-113.26399414 214.7165625 -113.28848633 215.51320312 -113.3137207 216.33398438 C-113.35165174 224.40065072 -111.13401026 231.75116971 -108.86450195 239.41992188 C-107.71900879 239.68619385 -106.57351562 239.95246582 -105.39331055 240.22680664 C-104.24562447 240.49362747 -104.24562447 240.49362747 -103.07475281 240.76583862 C-101.3383027 241.16947373 -99.60182099 241.57297289 -97.86531067 241.97634888 C-93.0169645 243.10287236 -88.16929237 244.23217795 -83.32275391 245.36645508 C-74.4998999 247.42898455 -65.67764116 249.48109808 -56.8215332 251.39648438 C-37.1314964 255.68203072 -20.23118086 260.04999197 -8.05200195 277.48242188 C-3.95850197 284.29198819 -1.93711545 291.80760411 0.13549805 299.41992188 C16.76698732 301.7767506 16.76698732 301.7767506 32.54077148 298.0078125 C36.50396015 294.07622821 38.71376893 289.20809242 40.90795898 284.13623047 C42.17926457 281.32307496 43.63573169 278.72139804 45.20581055 276.06445312 C58.45417065 253.52298167 70.65611308 225.95996902 64.13549805 199.41992188 C63.47730578 197.417117 62.81161427 195.41674718 62.13549805 193.41992188 C61.18860107 193.41627625 60.2417041 193.41263062 59.26611328 193.40887451 C50.32098645 193.37185414 41.37620163 193.31400484 32.43133545 193.23601913 C27.83319723 193.1965928 23.23524912 193.16438066 18.63696289 193.14892578 C14.19523337 193.13372715 9.75402668 193.09922514 5.31253052 193.05161285 C3.62220822 193.03683201 1.93181127 193.02888276 0.24142456 193.02803802 C-17.89205753 193.00987057 -17.89205753 193.00987057 -25.30200195 186.16992188 C-26.14762695 185.26242188 -26.99325195 184.35492188 -27.86450195 183.41992188 C-36.82020091 174.27121217 -48.66866198 167.24114954 -61.6262207 166.08398438 C-78.07015146 165.92036317 -91.46139811 171.16277937 -102.86450195 183.35742188 Z M-220.86450195 239.41992188 C-221.55930664 239.84402344 -222.25411133 240.268125 -222.9699707 240.70507812 C-230.66045901 245.8849755 -235.41969943 253.51995719 -237.86450195 262.41992188 C-238.28398036 266.06348926 -238.30547252 269.6768169 -238.3059082 273.34179688 C-238.31911606 274.36420471 -238.33232391 275.38661255 -238.34593201 276.44000244 C-238.3865953 279.68333744 -238.40844408 282.92639066 -238.42700195 286.16992188 C-238.45081084 289.42765045 -238.47891838 292.68511467 -238.51878357 295.94268799 C-238.54309173 297.96371225 -238.55798998 299.98487684 -238.56239319 302.00604248 C-238.5725798 302.92089417 -238.58276642 303.83574585 -238.59326172 304.77832031 C-238.59753677 305.58025818 -238.60181183 306.38219604 -238.60621643 307.20843506 C-238.89666103 309.69527365 -239.54094072 311.30279257 -240.86450195 313.41992188 C-244.12145415 315.04839797 -247.71068533 314.56405276 -251.28979492 314.56176758 C-252.59732727 314.56697922 -252.59732727 314.56697922 -253.93127441 314.57229614 C-255.82795445 314.57965859 -257.72464314 314.58500136 -259.62133408 314.58858681 C-262.62190536 314.5957394 -265.62231188 314.61139644 -268.62283325 314.62992859 C-277.15535231 314.68245826 -285.68778167 314.73039303 -294.22045898 314.74584961 C-299.43599457 314.75591807 -304.65111691 314.78521364 -309.86648941 314.82716942 C-311.85598758 314.83950063 -313.84554406 314.84459682 -315.83507919 314.84237099 C-318.61730973 314.84002412 -321.39834997 314.86213719 -324.18041992 314.88989258 C-325.0044632 314.88329117 -325.82850647 314.87668976 -326.67752075 314.86988831 C-330.28295659 314.92904394 -332.43101069 315.10049728 -335.37464905 317.26956177 C-337.03111221 319.66039666 -337.45218338 321.29595715 -337.27151489 324.19900513 C-336.30814975 329.45572688 -334.33602335 334.43866828 -332.5168457 339.44726562 C-332.0619879 340.72143944 -331.60794751 341.99590533 -331.15467834 343.27064514 C-330.20224669 345.94181313 -329.24245548 348.61017598 -328.27685547 351.27661133 C-327.05750178 354.64448433 -325.85275006 358.01734082 -324.65284157 361.3921833 C-316.47497222 386.28013712 -316.47497222 386.28013712 -304.11450195 409.16992188 C-303.69604004 409.77860107 -303.27757812 410.38728027 -302.84643555 411.0144043 C-285.93579862 435.01447645 -261.5256815 450.31757802 -232.8527832 455.87695312 C-221.35662779 457.61121766 -209.75959576 457.56920386 -198.16674805 457.56518555 C-196.42228118 457.56818451 -194.67781497 457.57158872 -192.93334961 457.57536316 C-188.23051075 457.58413311 -183.52769013 457.58653832 -178.82484388 457.58717895 C-175.8759502 457.58789353 -172.92706104 457.59003554 -169.97816849 457.59267616 C-159.65984049 457.60190698 -149.34152535 457.60601396 -139.02319336 457.60522461 C-129.45468938 457.60462469 -119.88624193 457.61516553 -110.31775224 457.63096827 C-102.06163248 457.64411026 -93.80553105 457.64940572 -85.54940093 457.6487692 C-80.63667724 457.64851613 -75.72400386 457.65126041 -70.81129074 457.66194725 C-66.18349392 457.67174095 -61.55579434 457.67163158 -56.92799377 457.66443062 C-55.246002 457.66339856 -53.56400379 457.6656637 -51.88202286 457.67179108 C-17.02473584 457.7903767 13.75446982 450.26298574 39.2722168 425.34570312 C49.89488904 414.63947004 57.6253894 402.12420231 62.82299805 388.02539062 C63.32869324 386.67506241 63.32869324 386.67506241 63.84460449 385.29745483 C64.94877372 382.34090225 66.04267914 379.38068698 67.13549805 376.41992188 C67.51649658 375.39381805 67.89749512 374.36771423 68.29003906 373.31051636 C70.6942022 366.83506648 73.07247146 360.35068247 75.42944336 353.85791016 C76.24321447 351.62251056 77.06168567 349.38881714 77.88452148 347.15673828 C79.0935309 343.87588752 80.28792215 340.590041 81.47924805 337.30273438 C82.03219543 335.81521164 82.03219543 335.81521164 82.59631348 334.29763794 C85.23832309 327.04248455 85.23832309 327.04248455 85.13549805 319.41992188 C82.95486244 316.80280406 81.14143307 315.57349015 77.74649227 315.05521095 C74.62430765 314.90534319 71.52551094 314.89391958 68.39976501 314.92112732 C67.19775076 314.91574277 65.9957365 314.91035821 64.75729758 314.90481049 C61.42393109 314.89383027 58.09146365 314.90072661 54.75816715 314.91509354 C51.16234621 314.92620744 47.56659506 314.91421508 43.97077942 314.90490723 C37.74097836 314.89181496 31.51131148 314.89298187 25.28150749 314.90350151 C16.26991338 314.91843575 7.25847682 314.90853077 -1.75310832 314.89198232 C-16.37951785 314.86551969 -31.00589205 314.8546625 -45.63232422 314.85571289 C-46.94537021 314.85580037 -46.94537021 314.85580037 -48.28494238 314.85588963 C-51.8320072 314.85615549 -55.37907201 314.85647278 -58.92613683 314.85685289 C-68.69310862 314.85781939 -78.46007935 314.85649097 -88.22705078 314.85375977 C-89.10165225 314.85351987 -89.97625372 314.85327998 -90.87735827 314.85303282 C-105.45019319 314.84862923 -120.02299527 314.83240852 -134.59581083 314.80853897 C-143.58713504 314.79445282 -152.57833462 314.79160216 -161.56966316 314.80316187 C-167.72712544 314.81047385 -173.88452483 314.80744031 -180.04198105 314.79620343 C-183.59691643 314.79011864 -187.15167606 314.78907299 -190.70660019 314.8010807 C-194.55640107 314.81400665 -198.40594498 314.80399801 -202.25575256 314.79173279 C-203.94906782 314.80309687 -203.94906782 314.80309687 -205.67659146 314.81469053 C-206.70559045 314.80770078 -207.73458945 314.80071104 -208.79477024 314.79350948 C-209.68364321 314.79377917 -210.57251619 314.79404886 -211.4883247 314.79432672 C-214.36614134 314.34088054 -215.74821066 313.38997628 -217.86450195 311.41992188 C-218.39575195 309.48242187 -218.39575195 309.48242187 -218.36450195 307.41992188 C-218.3799707 306.39898437 -218.3799707 306.39898437 -218.39575195 305.35742188 C-217.86450195 303.41992188 -217.86450195 303.41992188 -216.33116531 301.82374859 C-212.89814991 299.86995189 -209.71121446 299.99663206 -205.86663818 300.02119446 C-205.05467712 300.01454763 -204.24271605 300.0079008 -203.4061501 300.00105256 C-200.68217946 299.98238236 -197.95864652 299.98503053 -195.23461914 299.98754883 C-193.28330869 299.97853412 -191.33200392 299.96820762 -189.38070679 299.95666504 C-184.07944497 299.92903473 -178.77829042 299.91980232 -173.4769659 299.91381097 C-167.93823413 299.904443 -162.39958298 299.87824091 -156.86090088 299.85380554 C-146.37084052 299.81009342 -135.88079577 299.7815754 -125.39067197 299.75848216 C-113.44880124 299.73145575 -101.50701144 299.68754267 -89.56519842 299.64219344 C-64.99834344 299.54927965 -40.43146307 299.47762975 -15.86450195 299.41992188 C-16.33346688 297.97397022 -16.80579362 296.52910861 -17.27954102 295.0847168 C-17.54220764 294.27999435 -17.80487427 293.47527191 -18.07550049 292.64616394 C-21.44403163 283.14153554 -28.6970259 276.78684663 -37.50669861 272.43545914 C-41.68373748 270.63635293 -46.03134907 269.65278441 -50.44848633 268.61669922 C-51.48663231 268.36538931 -52.52477829 268.1140794 -53.59438324 267.85515404 C-57.01505956 267.03160368 -60.43926128 266.22426429 -63.86450195 265.41992188 C-65.03030792 265.14416573 -66.19611389 264.86840958 -67.39724731 264.58429718 C-76.43139217 262.44948539 -85.47435476 260.35361183 -94.52075195 258.27148438 C-95.22352201 258.10972953 -95.92629208 257.94797469 -96.6503582 257.78131819 C-103.31236935 256.24846065 -109.97493413 254.71802579 -116.63864899 253.19259071 C-125.05353511 251.26606539 -133.46556873 249.32793798 -141.87427378 247.37460577 C-147.85434597 245.98648658 -153.8374284 244.61186852 -159.822824 243.24688852 C-163.37080186 242.43738509 -166.91726202 241.62232569 -170.46052551 240.79240799 C-196.09421811 233.52048495 -196.09421811 233.52048495 -220.86450195 239.41992188 Z M-314.23950195 268.79492188 C-317.29340056 273.72814271 -318.48531953 278.50350024 -317.53637695 284.29882812 C-315.86125177 289.58715938 -312.62457589 294.07891316 -308.23950195 297.41992188 C-304.41467248 299.03037639 -301.14962222 299.5443564 -297.00415039 299.53344727 C-296.04345642 299.53337173 -295.08276245 299.5332962 -294.09295654 299.53321838 C-293.06366028 299.5280571 -292.03436401 299.52289581 -290.97387695 299.51757812 C-289.91412659 299.51616318 -288.85437622 299.51474823 -287.76251221 299.51329041 C-284.37981334 299.50769569 -280.9971808 299.49514413 -277.61450195 299.48242188 C-275.32023208 299.47740619 -273.02596116 299.47284341 -270.73168945 299.46875 C-265.10924754 299.45857916 -259.48694895 299.43900258 -253.86450195 299.41992188 C-253.86450195 291.49992187 -253.86450195 283.57992188 -253.86450195 275.41992188 C-261.34960059 272.42588242 -268.80905909 269.53035711 -276.40478516 266.84570312 C-277.67029017 266.39493516 -278.93334592 265.93723141 -280.19384766 265.47265625 C-293.35275185 260.62867856 -303.7066601 258.26208002 -314.23950195 268.79492188 Z " fill="#f78db5" transform="translate(352.864501953125,19.580078125)"/>
<path d="M0 0 C5.04354766 2.97359164 8.4903274 7.06500274 11 12.3125 C12.74292492 21.02712461 11.4864188 26.94102669 6.625 34.4375 C2.78541399 38.97276708 -1.38769197 43.13168 -5.61328125 47.3046875 C-6.82088712 48.51312377 -8.02767524 49.72237773 -9.23368835 50.93240356 C-11.75166912 53.453228 -14.27812283 55.96513146 -16.8112793 58.47070312 C-20.04438411 61.66967336 -23.2569717 64.88836353 -26.46368122 68.11376762 C-28.94850824 70.60920106 -31.44305019 73.09473651 -33.94066429 75.57736588 C-35.12867685 76.76022663 -36.31391571 77.94588044 -37.4962101 79.13445663 C-50.8088424 92.49125321 -50.8088424 92.49125321 -59.5 93.96875 C-60.923125 93.95328125 -60.923125 93.95328125 -62.375 93.9375 C-63.32375 93.9478125 -64.2725 93.958125 -65.25 93.96875 C-73.04215943 92.6440829 -78.37603562 88.04594105 -83.796875 82.58203125 C-84.46414612 81.92095871 -85.13141724 81.25988617 -85.81890869 80.57878113 C-87.21873558 79.18601796 -88.61351247 77.78816238 -90.00341797 76.38549805 C-92.11752956 74.25751944 -94.25453763 72.15464545 -96.39453125 70.05273438 C-97.75926502 68.68895198 -99.12259447 67.32376255 -100.484375 65.95703125 C-101.11672058 65.33794388 -101.74906616 64.71885651 -102.40057373 64.08100891 C-107.73064056 58.63857856 -111.35554332 52.67285127 -111.875 44.9375 C-111.51007085 38.19219669 -108.99389082 32.56204661 -104 28 C-98.65918779 23.92381986 -93.69510104 23.2147974 -87.1328125 22.9765625 C-79.56367261 24.24165954 -74.48588661 28.76686269 -69.375 34.1875 C-68.79105469 34.78949219 -68.20710938 35.39148438 -67.60546875 36.01171875 C-66.18585328 37.47787899 -64.77903581 38.95641344 -63.375 40.4375 C-58.36546291 36.2472966 -53.69516365 31.86894783 -49.12109375 27.2109375 C-47.75859806 25.8358042 -46.39596372 24.46080827 -45.03320312 23.0859375 C-42.91608727 20.94397807 -40.80062308 18.80043611 -38.68774414 16.65429688 C-36.62830521 14.56456156 -34.56261207 12.48116904 -32.49609375 10.3984375 C-31.87093369 9.75981781 -31.24577362 9.12119812 -30.60166931 8.46322632 C-22.20116968 0.01523105 -11.97994452 -5.42225729 0 0 Z M-16.13671875 17.37524414 C-16.82556152 18.0177713 -17.5144043 18.66029846 -18.22412109 19.32229614 C-21.93609863 22.97270584 -25.57831771 26.68162483 -29.1875 30.43359375 C-30.85570139 32.14362207 -32.525005 33.85257569 -34.1953125 35.56054688 C-36.79915831 38.22625991 -39.39627998 40.89718895 -41.97558594 43.58666992 C-44.48615232 46.20014006 -47.02146912 48.78727912 -49.5625 51.37109375 C-50.70972534 52.5849601 -50.70972534 52.5849601 -51.88012695 53.823349 C-57.94695836 59.92183742 -57.94695836 59.92183742 -62.79614258 60.00878906 C-66.29931442 59.44958161 -67.61868251 59.19381749 -70.0625 56.75 C-70.71347656 56.12738281 -71.36445313 55.50476563 -72.03515625 54.86328125 C-73.89295355 52.937251 -75.72829967 50.99488778 -77.55859375 49.04296875 C-78.12553955 48.4502417 -78.69248535 47.85751465 -79.27661133 47.24682617 C-80.41273189 46.05405249 -81.53171404 44.8446822 -82.6315918 43.6184082 C-84.14957495 42.01863566 -85.53087667 40.64788436 -87.375 39.4375 C-90.62762774 39.16756141 -90.62762774 39.16756141 -93.375 40.4375 C-95.58053483 43.14975811 -95.58053483 43.14975811 -95.38720703 45.69580078 C-93.88884923 49.75430492 -91.1954063 52.2668616 -88.1796875 55.3046875 C-87.55401886 55.94366974 -86.92835022 56.58265198 -86.28372192 57.24099731 C-84.95910305 58.58583435 -83.62903321 59.92532114 -82.29394531 61.25976562 C-80.2566285 63.305843 -78.25343149 65.38173772 -76.25 67.4609375 C-74.95769757 68.76497448 -73.66348761 70.06712442 -72.3671875 71.3671875 C-71.77211395 71.99100311 -71.17704041 72.61481873 -70.56393433 73.25753784 C-69.98708893 73.82207672 -69.41024353 74.3866156 -68.81591797 74.96826172 C-68.31929657 75.47058319 -67.82267517 75.97290466 -67.31100464 76.490448 C-64.07281354 78.07450172 -61.78380705 77.33760237 -58.375 76.4375 C-55.4134104 74.36451265 -55.4134104 74.36451265 -52.73095703 71.53808594 C-52.2146019 71.02903214 -51.69824677 70.51997833 -51.16624451 69.99549866 C-49.47332437 68.31871402 -47.80298177 66.62129836 -46.1328125 64.921875 C-44.95796224 63.74598675 -43.78207289 62.57113584 -42.60519409 61.39727783 C-40.14648724 58.93839188 -37.69841431 56.46953018 -35.2578125 53.99267578 C-32.13077692 50.82021604 -28.98202165 47.6704348 -25.82547188 44.52737045 C-23.39687017 42.10545418 -20.9783583 39.67366627 -18.56295395 37.23859406 C-17.40540132 36.07335098 -16.24514913 34.91078319 -15.08215714 33.75096893 C-13.45889115 32.12844556 -11.84924577 30.49352719 -10.24267578 28.85449219 C-9.32447052 27.92707214 -8.40626526 26.9996521 -7.4602356 26.04412842 C-5.30072641 23.34465502 -4.56113231 21.85869419 -4.375 18.4375 C-5.36534226 16.03366005 -5.36534226 16.03366005 -7.375 14.4375 C-11.43256438 13.94509354 -13.19109439 14.60715063 -16.13671875 17.37524414 Z " fill="#f78db5" transform="translate(465.375,70.5625)"/>
</svg>
