<svg xmlns="http://www.w3.org/2000/svg" width="512" height="512" viewBox="0 0 512 512" role="img" aria-label="Mood quotes">
  <path fill="#f78db5" d="M98 96h316c35 0 64 29 64 64v166c0 35-29 64-64 64H239l-80 54c-14 9-33 0-33-18v-36H98c-35 0-64-29-64-64V160c0-35 29-64 64-64Zm0 42c-12 0-22 10-22 22v166c0 12 10 22 22 22h49c12 0 21 9 21 21v17l53-35c3-2 8-3 12-3h181c12 0 22-10 22-22V160c0-12-10-22-22-22H98Z"/>
  <path fill="#f78db5" d="M175 209c0-15 12-28 28-28 15 0 28 13 28 28s-13 28-28 28c-16 0-28-13-28-28Zm106 0c0-15 13-28 28-28s28 13 28 28-13 28-28 28-28-13-28-28Zm-111 68a18 18 0 0 1 25 3c15 20 36 30 61 30s46-10 61-30a18 18 0 1 1 28 22c-22 29-53 44-89 44s-67-15-89-44a18 18 0 0 1 3-25Z"/>
</svg>
